<?xml version="1.0" encoding="utf-8"?>
<!-- Generator: Adobe Illustrator 16.0.0, SVG Export Plug-In . SVG Version: 6.00 Build 0)  -->
<!DOCTYPE svg PUBLIC "-//W3C//DTD SVG 1.1 Tiny//EN" "http://www.w3.org/Graphics/SVG/1.1/DTD/svg11-tiny.dtd">
<svg version="1.1" baseProfile="tiny" id="Layer_1" xmlns="http://www.w3.org/2000/svg" xmlns:xlink="http://www.w3.org/1999/xlink"
	 x="0px" y="0px" width="122.709px" height="162.628px" viewBox="0.001 0 122.709 162.628" xml:space="preserve">
<path fill="none" d="M53.583,154.622c0.426,0.008,0.853,0.005,1.278,0.011l-1.806-1.536c-0.306,0.184-0.605,0.453-0.909,0.635
	C52.625,154.042,53.1,154.614,53.583,154.622z"/>
<g>
	<path fill="#FFFFFF" d="M121.83,57.117c-1.322-3.205-2.637-6.414-3.959-9.619l0.182-0.253c-2.152-5.223-4.332-10.437-6.635-15.594
		c-2.523-5.653-5.455-11.129-8.357-16.604c-0.754-1.42-1.871-2.839-3.18-3.741C88.812,3.667,76.529-0.121,65.18,0.096
		c-2.567-0.006-5.032,0.081-7.411,0.261L77.57,20.994l-8.814,8.812c0.287,0.267,0.609,0.529,0.65,0.83
		c0.033,0.236,0.051,0.474,0.061,0.713c0.031,0.717-0.018,1.446-0.018,2.167c0,0.908,0.086,1.829-0.037,2.72
		c-0.059,0.412-0.527,0.766-0.811,1.146c-0.311-0.354-0.873-0.696-0.891-1.063c-0.084-1.816-0.08-3.639-0.012-5.457l-3.794,3.794
		c0.01,0.606,0.014,1.167-0.057,1.787c-0.039,0.355-0.531,0.634-0.816,0.962c-0.312-0.308-0.852-0.616-0.939-0.936l-8.512,8.513
		c5.621-0.275,11.267-0.25,16.925-0.035c10.135,0.385,20.166,1.519,29.879,4.621c4.168,1.33,8.164,3.025,11.74,5.601l-0.109,0.154
		c0.061,0.043,0.121,0.082,0.18,0.125c0.904,0.67,1.254,1.404,1.248,2.547c-0.045,9.369-0.047,18.739,0.006,28.107
		c0.006,1.232-0.318,2.135-1.236,2.928c-2.633,2.269-5.209,4.604-7.854,6.863c-3.914,3.344-8.748,3.875-13.574,4.041
		c-2.855,0.099-5.75-0.342-8.592-0.766c-0.352-0.052-0.729-0.246-1.076-0.505l0.113-0.159c-0.359-0.295-0.672-0.658-0.859-1.008
		c-3.131-5.844-6.172-11.735-9.184-17.64c-0.523-1.026-1.256-1.675-2.215-2.061L51.524,95.246l4.85,5.056
		c0.465-0.456,0.932-0.909,1.41-1.353c0.207-0.193,0.828-0.148,1.121,0.022c0.195,0.116,0.33,0.813,0.188,0.964
		c-0.508,0.536-1.021,1.065-1.541,1.592l9.169,9.559l3.422,2.527l-0.113,0.158l-2.506-1.852l10.047,10.473l-8.297,8.297
		c1.254,0.006,2.506,0.006,3.76,0.017c0.543,0.005,1.504,0.5,1.547,0.856c0.137,1.123-0.865,0.953-1.588,0.957
		c-1.85,0.006-3.701,0.002-5.551,0.002l-3.778,3.775c3.95,0.001,7.897,0,11.845,0.003c0.426,0,0.893-0.056,1.266,0.093
		c0.281,0.112,0.617,0.514,0.619,0.787c0.002,0.274-0.334,0.708-0.605,0.791c-0.496,0.152-1.053,0.124-1.584,0.124
		c-4.447,0.003-8.891,0.002-13.339,0.002l-3.748,3.75c4.957-0.002,9.919-0.004,14.878-0.001c0.734,0,1.729-0.127,1.58,0.982
		c-0.049,0.359-0.949,0.836-1.5,0.849c-3.424,0.079-7.219,0.04-10.22,0.04c0,0.002,0,0.004,0,0.005
		c-1.998,0-4.217,0.019-6.498,0.009l-5.209,5.147l5.133,4.392c0.182-0.11,0.35-0.188,0.539-0.199
		c1.975-0.097,3.951-0.041,5.93-0.041c1.981-0.002,3.96-0.053,5.937,0.037c0.461,0.02,0.896,0.511,1.346,0.785
		c-0.457,0.325-0.908,0.924-1.371,0.934c-3.535,0.07-7.071,0.07-10.604,0.02l9.101,7.737c3.174-0.302,6.391-0.862,9.641-1.672
		c11.299-2.813,20.602-9.037,26.396-19.236c4.924-8.671,8.883-17.894,13.211-26.897c1.713-3.565,2.34-7.395,2.594-11.338
		c0.512-7.896,1.178-15.783,1.812-23.671c0.523-6.504,1.131-13.003,1.605-19.512C122.488,59.198,122.225,58.073,121.83,57.117z
		 M75.051,36.393c-0.016,0.345-0.637,0.661-0.979,0.99c-0.277-0.386-0.738-0.75-0.791-1.165c-0.031-0.235-0.047-0.473-0.057-0.711
		c-0.027-0.715,0.02-1.439,0.02-2.158c0.002-0.904-0.09-1.823,0.043-2.708c0.059-0.392,0.574-0.715,0.881-1.07
		c0.305,0.306,0.863,0.601,0.877,0.92C75.131,32.457,75.143,34.429,75.051,36.393z M80.682,35.552
		c-0.01,0.225-0.027,0.448-0.059,0.67c-0.057,0.416-0.512,0.776-0.787,1.162c-0.338-0.387-0.947-0.759-0.971-1.164
		c-0.105-1.854-0.1-3.719-0.006-5.574c0.018-0.372,0.584-0.716,0.896-1.073c0.301,0.358,0.811,0.688,0.863,1.081
		c0.031,0.234,0.049,0.471,0.061,0.709c0.029,0.713-0.02,1.437-0.02,2.155C80.662,34.194,80.709,34.879,80.682,35.552z
		 M86.48,21.486c-0.012,0.283-0.59,0.817-0.771,0.765c-0.361-0.104-0.854-0.263-0.893-0.589c-0.115-1-0.041-1.793-0.041-2.793
		c-0.004,0-0.008,0-0.01,0c0-1-0.074-2.173,0.037-3.12c0.043-0.355,0.52-0.78,0.797-1.106c0.311,0.296,0.875,0.521,0.889,0.828
		C86.564,17.494,86.553,19.462,86.48,21.486z M92.131,20.563c-0.012,0.237-0.031,0.474-0.064,0.708
		c-0.057,0.386-0.605,0.7-0.93,1.047c-0.291-0.367-0.814-0.724-0.834-1.103c-0.088-1.856-0.086-3.72,0-5.576
		c0.018-0.386,0.531-0.749,0.816-1.122c0.33,0.394,0.871,0.751,0.945,1.189c0.037,0.219,0.061,0.441,0.07,0.666
		c0.033,0.671-0.025,1.359-0.023,2.037C92.111,19.126,92.162,19.85,92.131,20.563z M57.433,96.699
		c-0.461-0.752-0.934-1.327-0.852-1.422c0.549-0.638,1.211-1.181,1.877-1.701c0.021-0.016,0.75,0.691,0.695,0.785
		C58.72,95.079,58.173,95.73,57.433,96.699z M67.51,93.57c0.73,0.423,1.396,0.957,2.393,1.681c-0.729,0.476-1.289,0.965-1.387,0.886
		c-0.656-0.531-1.223-1.178-1.766-1.832C66.73,94.279,67.422,93.52,67.51,93.57z M67.035,98.962c0.207-0.188,0.824-0.265,0.99-0.106
		c1.582,1.506,3.107,3.068,4.639,4.625c0.098,0.102,0.107,0.293,0.268,0.771c-0.484,0.154-1.193,0.57-1.369,0.408
		c-1.641-1.512-3.207-3.104-4.738-4.727C66.686,99.786,66.826,99.15,67.035,98.962z M74.484,113.771
		c-0.418,0.01-0.953-0.146-1.248-0.432c-0.523-0.506-1.041-1.021-1.561-1.533l0.129-0.181c-1.529-1.506-3.049-3.024-4.57-4.542
		c-0.113-0.112-0.311-0.238-0.307-0.355c0.006-0.431-0.039-0.941,0.178-1.259c0.113-0.166,0.881-0.149,1.092,0.054
		c1.529,1.475,3.039,2.973,4.541,4.476l-0.131,0.182c0.721,0.722,1.441,1.44,2.16,2.162c0.141,0.142,0.191,0.37,0.342,0.675
		C74.912,113.271,74.703,113.766,74.484,113.771z M71.482,149.206c-2.938,0.077-5.875,0.038-8.815,0.038
		c-2.885,0-5.77,0.045-8.652-0.039c-0.539-0.016-1.061-0.547-1.59-0.842c0.52-0.322,1.035-0.922,1.561-0.928
		c5.82-0.066,11.646-0.067,17.468,0.002c0.508,0.006,1.008,0.637,1.514,0.978C72.471,148.691,71.982,149.193,71.482,149.206z"/>
	<path fill="none" d="M47.544,112.086c-0.247,0.258-0.068,0.92-0.088,1.396c0.137-0.021,0.285-0.025,0.436-0.03v-1.718
		C47.777,111.851,47.659,111.967,47.544,112.086z"/>
	<path fill="none" d="M47.532,131.418c0.12,0.072,0.24,0.159,0.359,0.248v-0.491C47.772,131.263,47.652,131.349,47.532,131.418z"/>
	<path fill="none" d="M42.08,33.782c0,1-0.076,1.722,0.04,2.671c0.042,0.351,0.534,0.556,0.822,0.876
		c0.313-0.3,0.886-0.651,0.899-0.964c0.088-1.976,0.092-3.997,0.016-5.973c-0.014-0.33-0.553-0.663-0.851-0.982
		c-0.311,0.352-0.836,0.895-0.89,1.282c-0.13,0.946-0.042,1.09-0.042,3.09C42.076,33.782,42.078,33.782,42.08,33.782z"/>
	<path fill="none" d="M36.154,20.387c0.011,0.239,0.03,0.476,0.062,0.711c0.054,0.381,0.593,0.694,0.911,1.038
		c0.277-0.328,0.781-0.648,0.795-0.987c0.076-1.919,0.083-3.845-0.007-5.763c-0.017-0.359-0.584-0.691-0.896-1.036
		c-0.281,0.33-0.761,0.635-0.804,0.994c-0.113,0.947-0.038,1.917-0.042,2.878C36.173,18.942,36.124,19.67,36.154,20.387z"/>
	<path fill="none" d="M46.163,136.172c-0.434,0.015-0.913,0.556-1.338,0.854c0.429,0.298,0.801,0.582,1.268,0.802
		c0.264,0.124,0.601-0.046,0.921-0.046c0.292,0,0.125,0,1.125,0v-1.651C47.138,136.14,46.78,136.151,46.163,136.172z"/>
	<path fill="none" d="M31.637,22.14c0.273-0.389,0.729-0.753,0.785-1.171c0.03-0.224,0.049-0.449,0.058-0.675
		c0.026-0.679-0.021-1.368-0.021-2.05c0-0.964,0.073-1.936-0.038-2.886c-0.043-0.362-0.512-0.674-0.788-1.009
		c-0.335,0.335-0.943,0.656-0.962,1.007c-0.096,1.922-0.098,3.854-0.004,5.775C30.686,21.482,31.298,21.804,31.637,22.14z"/>
	<path fill="none" d="M47.795,30.454c-0.093,1.907-0.032,3.824,0.062,5.731c0.006,0.132,0.281,0.26,0.281,0.386v-6.523
		C48.138,30.181,47.802,30.315,47.795,30.454z"/>
	<polygon fill="none" points="66.836,113.599 66.949,113.44 63.526,110.913 64.327,111.748 	"/>
	<path fill="none" d="M47.584,142.597c0.013,0.121,0.136,0.26,0.308,0.394v-1.179C47.674,141.938,47.542,142.169,47.584,142.597z"/>
	<path fill="#FF9800" d="M48.138,142.99c0-0.132-0.295-0.271-0.308-0.394c-0.042-0.428,0.308-0.658,0.308-0.785v-4.029
		c-1,0-0.832,0-1.125,0c-0.32,0-0.688,0.169-0.951,0.046c-0.467-0.222-0.87-0.54-1.299-0.839c0.425-0.299,0.965-0.82,1.398-0.836
		c0.617-0.021,0.976-0.014,1.976-0.022v-4.465c0-0.089-0.239-0.176-0.359-0.248c0.12-0.069,0.359-0.155,0.359-0.243V113.45
		c0,0.005-0.422,0.011-0.559,0.029c0.02-0.475-0.097-1.137,0.15-1.395c0.113-0.119,0.408-0.234,0.408-0.354V95.511v-0.896v-7.883
		c-2,3.487-3.746,6.974-5.516,10.481c-0.543,1.078-1.297,1.624-2.426,1.868c-5.836,1.261-11.681,0.958-17.319-0.785
		c-2.169-0.67-4.172-2.191-6.002-3.63c-2.433-1.914-4.683-4.079-6.9-6.246c-0.526-0.514-0.876-1.457-0.89-2.208
		c-0.02-1.191-0.034-2.382-0.042-3.574c-0.021-3.573-0.001-7.147-0.001-10.722c0.001-4.711,0.036-9.423-0.023-14.134
		c-0.015-1.139,0.346-1.878,1.253-2.549c4.919-3.63,10.677-5.623,16.51-7.08c7.017-1.753,14.356-2.735,21.356-3.202v-8.382
		c0-0.126-0.337-0.254-0.343-0.386c-0.094-1.907-0.03-3.824,0.062-5.731c0.007-0.139,0.28-0.273,0.28-0.406V0.979
		c-8,1.207-13.905,3.475-20.155,6.937c-4.914,2.721-8.599,6.291-10.832,11.376C11.867,31.328,6.568,43.37,1.216,55.374
		c-0.971,2.178-1.367,4.358-1.162,6.696c0.27,3.092,0.494,6.187,0.768,9.278c0.851,9.641,2.546,19.205,2.475,28.932
		c-0.043,5.967,1.251,11.672,3.896,17.049c3.289,6.688,6.554,13.386,9.858,20.066l-0.183,0.219c0.316,0.639,0.629,1.281,0.946,1.92
		c2.722,5.482,6.86,9.918,11.764,13.49c5.874,4.281,11.56,7.035,18.56,8.453v-12.771V142.99z M42.117,30.684
		c0.053-0.387,0.579-0.815,0.89-1.166c0.298,0.319,0.837,0.576,0.851,0.905c0.077,1.976,0.072,3.936-0.016,5.912
		c-0.014,0.313-0.586,0.587-0.899,0.888c-0.288-0.321-0.779-0.411-0.822-0.761c-0.115-0.949-0.04-1.679-0.04-2.679
		c-0.002,0-0.004,0-0.006,0C42.074,31.782,41.986,31.63,42.117,30.684z M36.214,15.343c0.043-0.358,0.522-0.664,0.804-0.994
		c0.312,0.345,0.88,0.677,0.896,1.036c0.09,1.917,0.083,3.844,0.007,5.763c-0.014,0.339-0.518,0.659-0.795,0.987
		c-0.317-0.343-0.856-0.656-0.911-1.038c-0.032-0.235-0.053-0.473-0.062-0.711c-0.031-0.717,0.02-1.444,0.02-2.165
		C36.176,17.261,36.102,16.291,36.214,15.343z M30.671,15.356c0.019-0.351,0.626-0.672,0.962-1.007
		c0.275,0.334,0.745,0.646,0.788,1.009c0.111,0.95,0.038,1.922,0.038,2.886c0,0.682,0.048,1.371,0.021,2.05
		c-0.009,0.226-0.027,0.451-0.058,0.675c-0.057,0.418-0.512,0.782-0.785,1.171c-0.339-0.335-0.952-0.657-0.97-1.008
		C30.574,19.21,30.576,17.278,30.671,15.356z"/>
	<path fill="#FF9800" d="M53.583,154.622c-0.483-0.008-0.958-0.579-1.437-0.891c0.304-0.182,0.727-0.451,1.032-0.635l-5.041-4.391
		v12.77c5,1.155,10.458,1.418,15.945,0.896l-9.161-7.737C54.497,154.627,54.008,154.63,53.583,154.622z"/>
	<path fill="none" d="M48.138,141.812v1.179c0,0.269,0.794,0.509,1.185,0.518c1.24,0.031,2.483,0.045,3.779,0.05l1.852-1.883
		c-1.896,0.001-3.688-0.002-5.584,0C48.927,141.676,48.138,141.61,48.138,141.812z"/>
	<path fill="none" d="M51.375,101.937l-2.818-2.084l-0.125,0.15l2.676,1.977c-0.404,0.412-0.812,0.82-1.21,1.238
		c-0.182,0.189-0.157,0.708-0.042,1.001c0.091,0.232,0.468,0.351,0.662,0.483c0.208-0.066,0.338-0.069,0.404-0.135
		c0.524-0.521,1.049-1.043,1.571-1.564l11.834,8.744l-0.801-0.834l-10.767-7.954c0.535-0.532,1.068-1.065,1.599-1.604l-1.177-1.227
		C52.573,100.726,51.971,101.327,51.375,101.937z"/>
	<path fill="none" d="M52.985,119.894c-0.278,0.176-0.56-0.11-0.838,0.89c0,0-0.007,0-0.006,0c-0.001,0-0.015,0-0.015,0
		c0.289,0,0.583,0.208,0.871,0.403c0.173,0.117,0.192,0.049,0.372,0.059c1.976,0.102,4.768-0.083,5.768-0.083
		c0,0.002,0,0.004,0,0.006c2.999,0,4.137,0.06,6.113-0.042c0.488-0.023,1.057-0.564,1.529-0.869
		c-0.438-0.285-0.836-0.812-1.279-0.82c-4.013-0.063-8.013,0.075-12.027,0.139C53.305,119.576,53.152,119.788,52.985,119.894z"/>
	<path fill="none" d="M49.291,125.91c0.041,0.354,0.836,0.84,1.387,0.856c2.883,0.086,5.461,0.041,8.461,0.041
		c0-0.002,0-0.006,0-0.008c3,0,5.854,0.053,8.682-0.042c0.594-0.02,1.756-0.524,1.793-0.885c0.105-1.089-0.881-0.922-1.598-0.924
		c-5.716-0.011-11.419-0.011-17.135,0C50.158,124.951,49.164,124.804,49.291,125.91z"/>
	<path fill="none" d="M49.241,130.53c-0.411,0.003-1.104,0.347-1.104,0.646v0.491c0,0.295,0.663,0.63,1.063,0.641
		c3.425,0.08,6.791,0.041,10.217,0.045c1.631,0,3.23-0.002,4.859-0.002l1.88-1.832C60.503,130.485,54.896,130.481,49.241,130.53z"/>
	<path fill="none" d="M53.852,135.954c-1.945,0.001-3.714,0.152-5.714,0.178v1.796c3,0.001,7.062-0.173,10.656-0.173l1.678-1.972
		c-0.325,0-0.65,0-0.976,0C57.575,135.782,55.775,135.953,53.852,135.954z"/>
	<path fill="none" d="M52.051,110.104c1.1-1.096,2.23-2.16,3.269-3.311c0.255-0.281,0.286-0.852,0.248-1.273
		c-0.017-0.185-0.466-0.33-0.735-0.502c-0.286,0.184-0.419,0.291-0.601,0.47c-2.087,2.067-4.095,4.128-6.095,6.243v1.719
		c0-0.012,0.615-0.018,0.829-0.204C50.092,112.265,50.993,111.163,52.051,110.104z"/>
	<path fill="#FF9800" d="M49.202,132.306c-0.4-0.01-1.063-0.344-1.063-0.64v4.465c2-0.026,3.769-0.176,5.714-0.178
		c1.923-0.001,3.723-0.171,5.645-0.171c0.325,0,0.65,0,0.976,0l3.775-3.604c-1.629,0-3.198,0.089-4.829,0.089
		C55.993,132.262,52.626,132.387,49.202,132.306z"/>
	<path fill="#FF9800" d="M54.604,77.355c-1.439,0.35-2.331,1.099-3.025,2.462c-1.176,2.312-2.44,4.614-3.44,6.917v7.883v0.896
		v16.221c2-2.116,4.007-4.178,6.095-6.244c0.182-0.18,0.376-0.287,0.663-0.469c0.269,0.172,0.688,0.316,0.704,0.5
		c0.038,0.422-0.009,0.992-0.264,1.274c-1.038,1.149-2.177,2.214-3.275,3.312c-1.061,1.058-1.963,2.158-3.089,3.142
		c-0.215,0.187-0.833,0.192-0.833,0.204v17.725c0-0.299,0.692-0.642,1.104-0.646c5.654-0.048,11.247-0.046,16.902-0.013l8.266-8.297
		l-10.063-10.474L52.5,103.004c-0.522,0.521-1.051,1.043-1.575,1.563c-0.065,0.066-0.198,0.07-0.406,0.136
		c-0.194-0.132-0.572-0.251-0.663-0.483c-0.115-0.293-0.14-0.812,0.042-1.001c0.397-0.417,0.805-0.825,1.209-1.237l-2.676-1.978
		l0.125-0.149l2.818,2.082c0.597-0.608,1.198-1.211,1.807-1.807l-4.852-5.055l17.45-17.449c-0.219-0.088-0.447-0.167-0.691-0.229
		C61.597,76.515,58.106,76.503,54.604,77.355z M69.682,125.874c-0.035,0.359-1.268,0.865-1.861,0.885
		c-2.828,0.094-5.685,0.042-8.683,0.042c0,0.002,0,0.005,0,0.007c-3,0-5.578,0.047-8.461-0.039
		c-0.551-0.018-1.416-0.504-1.455-0.857c-0.128-1.105,0.918-0.958,1.641-0.96c5.715-0.011,11.454-0.011,17.169,0
		C68.748,124.951,69.787,124.784,69.682,125.874z M65.537,119.437c0.441,0.008,0.875,0.535,1.312,0.82
		c-0.475,0.305-1.109,0.846-1.598,0.869c-1.978,0.102-3.114,0.042-6.114,0.042c0-0.002,0-0.003,0-0.006c-1,0-3.792,0.06-5.768-0.042
		c-0.18-0.01-0.269,0.183-0.44,0.066c-0.288-0.196-0.514-0.404-0.803-0.404c0,0,0.014,0,0.015,0c-0.001,0,0.006,0,0.006,0
		c0.278-1,0.56-0.713,0.838-0.889c0.167-0.105,0.336-0.317,0.505-0.319C57.504,119.511,61.522,119.372,65.537,119.437z"/>
	<path fill="#FF9800" d="M48.138,141.812c0-0.201,0.774-0.136,1.216-0.136c1.896-0.002,3.732,0,5.63,0l3.842-3.75
		c-3.594,0-7.688,0.002-10.688,0.001V141.812z"/>
	<path fill="#FF9800" d="M48.138,142.99v5.716l5.024-5.146c-1.296-0.006-2.539-0.02-3.779-0.051
		C48.993,143.499,48.138,143.258,48.138,142.99z"/>
	<path fill="#FF9800" d="M63.526,110.913l-9.168-9.559c-0.529,0.537-1.062,1.071-1.599,1.604L63.526,110.913z"/>
	<path fill="none" d="M54.166,37.185c0.294-0.316,0.799-0.381,0.842-0.729c0.118-0.946,0.041-1.674,0.041-2.674
		c-0.002,0-0.004,0-0.007,0c0-2,0.074-2.241-0.041-3.242c-0.039-0.344-0.547-0.715-0.841-1.03c-0.291,0.319-0.82,0.564-0.833,0.894
		c-0.079,1.972-0.078,3.914,0.001,5.885C53.339,36.612,53.873,36.874,54.166,37.185z"/>
	<path fill="none" d="M48.138,47.307l2.496-2.497c-0.833,0.041-1.496,0.088-2.496,0.143V47.307z"/>
	<path fill="none" d="M65.33,29.398c-0.285,0.327-0.799,0.644-0.813,0.982c-0.004,0.104-0.006,0.207-0.01,0.311l1.058-1.056
		C65.48,29.556,65.398,29.478,65.33,29.398z"/>
	<path fill="none" d="M48.748,37.203c0.285-0.376,0.7-0.728,0.753-1.134c0.031-0.235,0.018-0.472,0.027-0.71
		c0.028-0.713-0.034-1.437-0.033-2.153c0-0.677,0.043-1.362,0.014-2.035c-0.01-0.224-0.032-0.447-0.064-0.668
		c-0.06-0.4-0.435-0.735-0.731-1.1c-0.196,0.216-0.573,0.428-0.573,0.645v6.523C48.138,36.783,48.539,36.99,48.748,37.203z"/>
	<path fill="none" d="M60.687,33.782c0-2,0.079-2.221-0.042-3.163c-0.043-0.339-0.565-1.024-0.871-1.026
		c-0.307-0.002-0.87,0.467-0.883,0.781c-0.086,1.966-0.099,3.915-0.009,5.88c0.001,0.025,0.012,0.035,0.02,0.059l1.812-1.575
		c-0.007-0.371-0.017-0.956-0.017-0.956C60.694,33.782,60.69,33.782,60.687,33.782z"/>
	<path fill="#FF9800" d="M48.709,29.403c0.297,0.365,0.732,0.7,0.791,1.1c0.033,0.221,0.021,0.444,0.031,0.668
		c0.03,0.673-0.037,1.357-0.037,2.035c-0.001,0.717,0.038,1.44,0.01,2.153c-0.01,0.238-0.03,0.475-0.062,0.71
		c-0.053,0.406-0.409,0.757-0.693,1.134c-0.209-0.212-0.611-0.419-0.611-0.632v8.382c1-0.055,1.541-0.102,2.374-0.143l8.45-8.512
		c-0.007-0.025-0.048-0.05-0.049-0.075c-0.09-1.965-0.094-3.945-0.007-5.911c0.014-0.314,0.569-0.844,0.875-0.842
		c0.306,0.002,0.824,0.812,0.867,1.149c0.12,0.942,0.038,1.163,0.038,3.163c0.004,0,0.008,0,0.011,0c0,0,0.01,0.577,0.017,0.948
		l3.792-3.917c0.004-0.104,0.006-0.269,0.01-0.372c0.015-0.338,0.528-0.686,0.813-1.013c0.07,0.08,0.15,0.143,0.234,0.221
		l8.812-8.821L54.7,0.188c-2.306,0.175-4.562,0.434-6.562,0.792v29.068C48.138,29.831,48.513,29.619,48.709,29.403z M53.326,30.342
		c0.013-0.33,0.542-0.636,0.833-0.955c0.294,0.315,0.802,0.81,0.841,1.153c0.114,1.001,0.041,1.242,0.041,3.242
		c0.002,0,0.005,0,0.007,0c0,1,0.078,1.728-0.041,2.674c-0.042,0.347-0.547,0.536-0.842,0.852c-0.292-0.312-0.826-0.665-0.838-0.989
		C53.248,34.348,53.248,32.314,53.326,30.342z"/>
</g>
</svg>
