<?xml version="1.0" encoding="utf-8"?>
<!-- Generator: Adobe Illustrator 16.0.0, SVG Export Plug-In . SVG Version: 6.00 Build 0)  -->
<!DOCTYPE svg PUBLIC "-//W3C//DTD SVG 1.1 Tiny//EN" "http://www.w3.org/Graphics/SVG/1.1/DTD/svg11-tiny.dtd">
<svg version="1.1" baseProfile="tiny" id="Layer_1" xmlns="http://www.w3.org/2000/svg" xmlns:xlink="http://www.w3.org/1999/xlink"
	 x="0px" y="0px" width="512px" height="512px" viewBox="0 0 512 512" xml:space="preserve">
<path fill="none" d="M156.805,49.417c-0.011-0.224-0.033-0.446-0.07-0.666c-0.075-0.437-0.617-0.795-0.946-1.189
	c-0.285,0.374-0.799,0.736-0.817,1.122c-0.085,1.855-0.086,3.72,0.001,5.575c0.018,0.38,0.542,0.736,0.834,1.103
	c0.324-0.347,0.872-0.661,0.928-1.046c0.035-0.234,0.054-0.47,0.065-0.708c0.032-0.713-0.02-1.438-0.02-2.155
	C156.779,50.776,156.839,50.089,156.805,49.417z"/>
<path fill="none" d="M150.271,47.591c-0.279,0.327-0.755,0.891-0.797,1.246c-0.112,0.947-0.038,1.163-0.038,3.163
	c0.003,0,0.005,0,0.009,0c0,1-0.074,1.75,0.042,2.75c0.038,0.326,0.532,0.561,0.893,0.664c0.181,0.052,0.759-0.541,0.77-0.824
	c0.072-2.024,0.084-4.069,0.009-6.093C151.146,48.19,150.58,47.887,150.271,47.591z"/>
<path fill="#595959" d="M189.977,90.248c-1.322-3.205-2.638-6.414-3.96-9.619l0.183-0.253c-2.154-5.223-4.333-10.437-6.636-15.594
	c-2.523-5.653-5.455-11.129-8.357-16.604c-0.753-1.42-1.872-2.839-3.18-3.741c-11.069-7.639-23.351-11.427-34.7-11.21
	c-2.568-0.006-5.033,0.081-7.412,0.261l19.801,20.637l-8.813,8.813c0.287,0.267,0.609,0.529,0.65,0.83
	c0.033,0.236,0.051,0.474,0.061,0.713c0.031,0.717-0.019,1.446-0.018,2.167c0,0.908,0.086,1.829-0.038,2.72
	c-0.058,0.412-0.527,0.766-0.81,1.146c-0.311-0.354-0.873-0.696-0.89-1.063c-0.085-1.816-0.08-3.639-0.012-5.457l-3.794,3.794
	c0.011,0.606,0.014,1.167-0.056,1.787c-0.039,0.355-0.532,0.634-0.817,0.962c-0.311-0.308-0.85-0.616-0.939-0.936l-8.513,8.513
	c5.621-0.275,11.267-0.25,16.926-0.035c10.135,0.385,20.165,1.519,29.879,4.621c4.167,1.33,8.163,3.025,11.74,5.601l-0.11,0.154
	c0.06,0.043,0.121,0.082,0.18,0.125c0.904,0.67,1.254,1.404,1.248,2.547c-0.046,9.369-0.048,18.739,0.005,28.108
	c0.007,1.232-0.317,2.135-1.236,2.927c-2.633,2.269-5.209,4.604-7.853,6.863c-3.914,3.345-8.748,3.876-13.574,4.042
	c-2.856,0.098-5.75-0.342-8.593-0.766c-0.35-0.052-0.728-0.246-1.076-0.505l0.114-0.159c-0.359-0.295-0.672-0.658-0.86-1.008
	c-3.13-5.843-6.171-11.735-9.184-17.64c-0.523-1.026-1.255-1.675-2.214-2.061l-17.449,17.449l4.851,5.056
	c0.465-0.456,0.932-0.909,1.409-1.352c0.208-0.194,0.829-0.149,1.121,0.022c0.197,0.116,0.331,0.813,0.188,0.963
	c-0.507,0.537-1.022,1.066-1.541,1.593l9.17,9.558l3.422,2.527l-0.114,0.159l-2.507-1.852l10.048,10.473l-8.297,8.296
	c1.253,0.007,2.506,0.006,3.759,0.017c0.544,0.005,1.504,0.5,1.548,0.856c0.137,1.123-0.865,0.954-1.588,0.957
	c-1.85,0.006-3.701,0.003-5.551,0.002l-3.777,3.776c3.948,0.001,7.896,0,11.844,0.003c0.426,0,0.891-0.056,1.265,0.093
	c0.282,0.112,0.617,0.513,0.619,0.787c0.002,0.274-0.333,0.708-0.606,0.791c-0.495,0.152-1.053,0.124-1.584,0.124
	c-4.446,0.003-8.891,0.002-13.337,0.002l-3.75,3.75c4.959-0.002,9.919-0.004,14.878-0.001c0.735,0,1.729-0.127,1.58,0.982
	c-0.049,0.359-0.948,0.836-1.499,0.849c-3.424,0.079-7.219,0.04-10.219,0.04c0,0.002,0,0.004,0,0.005c-2,0-4.218,0.018-6.499,0.008
	l-5.209,5.148l5.133,4.391c0.182-0.11,0.35-0.188,0.538-0.198c1.976-0.097,3.952-0.041,5.932-0.042
	c1.98-0.001,3.959-0.052,5.936,0.037c0.459,0.02,0.896,0.511,1.345,0.786c-0.457,0.325-0.909,0.924-1.372,0.933
	c-3.534,0.07-7.069,0.07-10.604,0.02l9.1,7.737c3.175-0.301,6.391-0.862,9.641-1.672c11.299-2.813,20.602-9.037,26.396-19.236
	c4.925-8.671,8.883-17.893,13.212-26.897c1.713-3.566,2.339-7.395,2.593-11.338c0.512-7.896,1.179-15.784,1.813-23.672
	c0.523-6.504,1.131-13.003,1.606-19.512C190.634,92.329,190.371,91.204,189.977,90.248z M143.196,69.523
	c-0.016,0.345-0.637,0.661-0.979,0.99c-0.276-0.386-0.737-0.75-0.791-1.165c-0.03-0.235-0.047-0.473-0.056-0.711
	c-0.027-0.715,0.019-1.439,0.019-2.158c0.002-0.904-0.089-1.823,0.044-2.708c0.059-0.392,0.573-0.715,0.88-1.07
	c0.306,0.306,0.864,0.601,0.878,0.92C143.276,65.588,143.288,67.56,143.196,69.523z M148.828,68.683
	c-0.009,0.225-0.027,0.448-0.058,0.67c-0.057,0.416-0.512,0.776-0.787,1.162c-0.339-0.387-0.948-0.759-0.971-1.164
	c-0.106-1.854-0.099-3.719-0.006-5.574c0.018-0.372,0.584-0.716,0.897-1.073c0.3,0.358,0.809,0.688,0.862,1.081
	c0.032,0.234,0.05,0.471,0.061,0.709c0.029,0.713-0.02,1.437-0.019,2.155C148.808,67.325,148.855,68.009,148.828,68.683z
	 M154.625,54.617c-0.011,0.283-0.589,0.817-0.77,0.765c-0.361-0.104-0.855-0.263-0.893-0.589c-0.116-1-0.042-1.793-0.042-2.793
	c-0.003,0-0.006,0-0.009,0c0-1-0.075-2.173,0.038-3.12c0.042-0.355,0.518-0.78,0.796-1.106c0.31,0.296,0.875,0.521,0.888,0.828
	C154.71,50.625,154.698,52.593,154.625,54.617z M160.276,53.694c-0.011,0.237-0.03,0.474-0.065,0.708
	c-0.056,0.386-0.604,0.7-0.928,1.047c-0.292-0.367-0.816-0.724-0.834-1.103c-0.088-1.856-0.087-3.72-0.001-5.576
	c0.018-0.386,0.532-0.749,0.816-1.122c0.33,0.394,0.871,0.751,0.946,1.189c0.037,0.219,0.06,0.441,0.07,0.666
	c0.033,0.671-0.026,1.359-0.024,2.037C160.257,52.256,160.309,52.981,160.276,53.694z M125.578,129.831
	c-0.46-0.752-0.933-1.328-0.851-1.423c0.549-0.637,1.211-1.18,1.876-1.701c0.021-0.016,0.751,0.691,0.695,0.785
	C126.866,128.21,126.318,128.86,125.578,129.831z M135.655,126.702c0.73,0.422,1.396,0.956,2.393,1.68
	c-0.728,0.476-1.289,0.965-1.387,0.886c-0.656-0.532-1.223-1.178-1.765-1.832C134.875,127.411,135.567,126.651,135.655,126.702z
	 M135.18,132.093c0.208-0.188,0.824-0.264,0.991-0.106c1.581,1.506,3.108,3.068,4.638,4.625c0.099,0.101,0.107,0.292,0.268,0.771
	c-0.484,0.154-1.193,0.57-1.369,0.408c-1.641-1.511-3.207-3.104-4.738-4.727C134.831,132.917,134.971,132.281,135.18,132.093z
	 M142.63,146.901c-0.418,0.01-0.953-0.146-1.248-0.431c-0.524-0.506-1.042-1.021-1.561-1.533l0.13-0.181
	c-1.53-1.506-3.05-3.024-4.571-4.542c-0.114-0.112-0.31-0.238-0.307-0.355c0.007-0.431-0.038-0.942,0.178-1.259
	c0.113-0.166,0.88-0.149,1.091,0.054c1.531,1.474,3.039,2.972,4.542,4.475l-0.131,0.182c0.721,0.721,1.441,1.44,2.161,2.162
	c0.14,0.141,0.191,0.37,0.341,0.675C143.058,146.402,142.85,146.896,142.63,146.901z M139.627,182.336
	c-2.936,0.077-5.875,0.038-8.814,0.038c-2.885,0-5.771,0.045-8.653-0.039c-0.538-0.016-1.061-0.547-1.59-0.841
	c0.519-0.323,1.036-0.922,1.56-0.929c5.822-0.066,11.647-0.067,17.469,0.002c0.508,0.007,1.008,0.637,1.513,0.978
	C140.616,181.821,140.128,182.324,139.627,182.336z"/>
<g>
	<path fill="none" d="M115.407,145.304c-0.247,0.258-0.069,0.92-0.088,1.395c0.137-0.02,0.285-0.025,0.435-0.03v-1.718
		C115.64,145.069,115.521,145.185,115.407,145.304z"/>
	<path fill="none" d="M115.395,164.636c0.12,0.072,0.24,0.159,0.359,0.248v-0.491C115.634,164.481,115.515,164.565,115.395,164.636z
		"/>
	<path fill="none" d="M109.942,67c0,1-0.076,1.722,0.04,2.671c0.042,0.351,0.534,0.556,0.822,0.876c0.314-0.3,0.886-0.651,0.9-0.964
		c0.087-1.976,0.091-3.997,0.015-5.973c-0.013-0.33-0.553-0.663-0.85-0.982c-0.311,0.352-0.836,0.895-0.89,1.282
		c-0.13,0.946-0.042,1.09-0.042,3.09C109.938,67,109.94,67,109.942,67z"/>
	<path fill="none" d="M104.017,53.604c0.011,0.239,0.03,0.476,0.063,0.711c0.053,0.381,0.592,0.694,0.911,1.038
		c0.277-0.328,0.781-0.648,0.795-0.987c0.076-1.919,0.083-3.845-0.007-5.763c-0.017-0.359-0.584-0.691-0.897-1.036
		c-0.281,0.33-0.76,0.635-0.803,0.994c-0.114,0.947-0.038,1.917-0.042,2.878C104.036,52.16,103.986,52.888,104.017,53.604z"/>
	<path fill="none" d="M114.025,169.39c-0.434,0.015-0.913,0.556-1.338,0.854c0.429,0.298,0.801,0.582,1.268,0.802
		c0.263,0.124,0.6-0.046,0.92-0.046c0.292,0,0.125,0,1.125,0v-1.651C115,169.357,114.642,169.37,114.025,169.39z"/>
	<path fill="none" d="M99.5,55.357c0.274-0.389,0.729-0.753,0.786-1.171c0.03-0.224,0.048-0.449,0.057-0.675
		c0.027-0.679-0.021-1.368-0.021-2.05c0-0.964,0.073-1.936-0.038-2.886c-0.043-0.362-0.512-0.674-0.788-1.009
		c-0.335,0.335-0.944,0.656-0.962,1.007c-0.096,1.922-0.098,3.854-0.004,5.775C98.548,54.7,99.162,55.022,99.5,55.357z"/>
	<path fill="none" d="M115.658,63.671c-0.093,1.907-0.033,3.824,0.061,5.731c0.006,0.132,0.281,0.26,0.281,0.386v-6.523
		C116,63.398,115.665,63.533,115.658,63.671z"/>
	<path fill="none" d="M127.703,70.45c0.286-0.327,0.778-0.606,0.817-0.962c0.07-0.62,0.067-1.18,0.056-1.787l-1.813,1.813
		C126.853,69.834,127.393,70.142,127.703,70.45z"/>
	<path fill="none" d="M123.761,132.98c0.143-0.15,0.009-0.848-0.188-0.964c-0.292-0.171-0.913-0.216-1.121-0.022
		c-0.477,0.444-0.943,0.897-1.409,1.352l1.177,1.227C122.739,134.047,123.253,133.517,123.761,132.98z"/>
	<path fill="none" d="M132.383,69.365c0.017,0.367,0.579,0.709,0.89,1.062c0.282-0.38,0.751-0.735,0.81-1.146
		c0.124-0.891,0.038-1.811,0.038-2.72c-0.001-0.721,0.048-1.449,0.018-2.167c-0.01-0.239-0.029-0.477-0.062-0.713
		c-0.042-0.3-0.363-0.562-0.65-0.83l-1.056,1.056C132.302,65.726,132.298,67.549,132.383,69.365z"/>
	<polygon fill="none" points="134.698,146.817 134.812,146.658 131.391,144.131 132.191,144.965 	"/>
	<path fill="none" d="M139.871,171.142c0.531,0,1.09,0.028,1.584-0.124c0.273-0.083,0.609-0.517,0.606-0.791
		c-0.002-0.273-0.337-0.674-0.619-0.787c-0.375-0.15-0.839-0.093-1.266-0.093c-3.948-0.004-7.896-0.002-11.844-0.003l-1.8,1.8
		C130.98,171.144,135.425,171.145,139.871,171.142z"/>
	<path fill="none" d="M115.447,175.814c0.012,0.122,0.135,0.261,0.307,0.394v-1.179
		C115.537,175.156,115.405,175.387,115.447,175.814z"/>
	<path fill="none" d="M137.662,165.564c0.723-0.003,1.725,0.166,1.588-0.957c-0.043-0.355-1.003-0.851-1.548-0.856
		c-1.253-0.011-2.506-0.01-3.759-0.017l-1.832,1.833C133.961,165.567,135.812,165.571,137.662,165.564z"/>
	<path fill="none" d="M127,176.768c0-0.001,0-0.003,0-0.005c4,0,7.058,0.039,10.481-0.04c0.552-0.012,1.643-0.49,1.691-0.849
		c0.15-1.109-0.81-0.982-1.544-0.982c-4.958-0.004-9.901-0.001-14.861,0.001l-2.013,1.883C123.036,176.786,125,176.768,127,176.768z
		"/>
	<path fill="none" d="M123.128,126.621c-0.666,0.521-1.327,1.064-1.876,1.701c-0.083,0.096,0.391,0.671,0.851,1.423
		c0.74-0.97,1.288-1.62,1.721-2.339C123.879,127.312,123.149,126.604,123.128,126.621z"/>
	<path fill="none" d="M145.35,64.408c-0.01-0.237-0.029-0.474-0.06-0.709c-0.053-0.392-0.562-0.723-0.862-1.081
		c-0.313,0.357-0.879,0.702-0.897,1.073c-0.093,1.855-0.099,3.72,0.006,5.574c0.024,0.405,0.632,0.777,0.971,1.164
		c0.275-0.386,0.73-0.746,0.787-1.162c0.03-0.222,0.048-0.445,0.058-0.669c0.027-0.674-0.02-1.358-0.021-2.035
		C145.331,65.845,145.379,65.121,145.35,64.408z"/>
	<path fill="none" d="M133.185,129.183c0.098,0.08,0.659-0.41,1.387-0.886c-0.997-0.725-1.663-1.258-2.392-1.68
		c-0.088-0.051-0.78,0.709-0.76,0.733C131.962,128.004,132.529,128.65,133.185,129.183z"/>
	<path fill="none" d="M138.837,62.618c-0.307,0.354-0.821,0.678-0.88,1.07c-0.133,0.884-0.042,1.803-0.044,2.708
		c0,0.718-0.046,1.442-0.019,2.157c0.009,0.238,0.027,0.476,0.057,0.711c0.053,0.415,0.514,0.778,0.791,1.165
		c0.341-0.329,0.962-0.646,0.978-0.99c0.092-1.964,0.081-3.936-0.004-5.9C139.701,63.219,139.143,62.924,138.837,62.618z"/>
	<path fill="none" d="M118.653,180.48c-0.523,0.007-1.041,0.606-1.56,0.929c0.529,0.294,1.053,0.825,1.59,0.841
		c2.882,0.084,5.769,0.039,8.653,0.039c2.939,0,5.878,0.039,8.814-0.038c0.501-0.012,0.989-0.515,1.483-0.791
		c-0.504-0.341-1.004-0.971-1.512-0.978C130.3,180.413,124.476,180.414,118.653,180.48z"/>
	<path fill="none" d="M137.278,143.226l0.13-0.182c-1.503-1.502-3.011-3-4.542-4.475c-0.212-0.204-0.979-0.22-1.092-0.054
		c-0.215,0.316-0.171,0.828-0.178,1.258c-0.002,0.117,0.193,0.243,0.307,0.356c1.521,1.517,3.041,3.035,4.571,4.542l-0.13,0.181
		c0.52,0.512,1.037,1.027,1.561,1.533c0.295,0.285,0.83,0.441,1.248,0.431c0.22-0.004,0.428-0.499,0.626-0.753
		c-0.15-0.305-0.202-0.534-0.341-0.675C138.72,144.666,137.999,143.947,137.278,143.226z"/>
	<path fill="none" d="M136.232,137.705c0.176,0.163,0.885-0.253,1.369-0.408c-0.16-0.479-0.168-0.669-0.267-0.771
		c-1.531-1.557-3.058-3.12-4.639-4.625c-0.167-0.159-0.783-0.082-0.991,0.106c-0.208,0.188-0.349,0.823-0.21,0.971
		C133.025,134.601,134.591,136.195,136.232,137.705z"/>
	<path fill="none" d="M133.327,187.831c0.463-0.009,0.915-0.608,1.371-0.933c-0.449-0.275-0.888-0.766-1.347-0.786
		c-1.977-0.089-3.96-0.039-5.94-0.037c-1.98,0.002-3.963-0.054-5.939,0.042c-0.188,0.01-0.372,0.088-0.554,0.198l1.806,1.536
		C126.258,187.9,129.793,187.9,133.327,187.831z"/>
	<path fill="#FFE133" d="M116,176.208c0-0.132-0.294-0.271-0.307-0.394c-0.042-0.427,0.307-0.658,0.307-0.785V171
		c-1,0-0.832,0-1.125,0c-0.32,0-0.688,0.169-0.951,0.046c-0.467-0.221-0.87-0.54-1.299-0.839c0.425-0.298,0.965-0.82,1.399-0.835
		c0.617-0.021,0.975-0.015,1.975-0.023v-4.465c0-0.089-0.239-0.176-0.359-0.248c0.12-0.07,0.359-0.155,0.359-0.243v-17.725
		c0,0.005-0.421,0.011-0.558,0.03c0.019-0.475-0.097-1.137,0.15-1.395c0.114-0.119,0.408-0.235,0.408-0.354v-16.22v-0.897v-7.882
		c-2,3.487-3.746,6.973-5.515,10.481c-0.543,1.078-1.297,1.624-2.426,1.868c-5.836,1.261-11.681,0.958-17.319-0.785
		c-2.169-0.67-4.172-2.191-6.002-3.63c-2.433-1.914-4.683-4.079-6.901-6.246c-0.526-0.514-0.876-1.457-0.889-2.208
		c-0.02-1.191-0.034-2.382-0.042-3.574c-0.022-3.573-0.001-7.148-0.001-10.722c0.001-4.711,0.036-9.423-0.024-14.134
		c-0.014-1.139,0.346-1.878,1.253-2.549c4.919-3.63,10.677-5.623,16.51-7.08C101.661,79.62,109,78.637,116,78.17v-8.382
		c0-0.126-0.336-0.254-0.342-0.386c-0.094-1.907-0.031-3.824,0.062-5.731c0.007-0.139,0.28-0.273,0.28-0.406V34.197
		c-8,1.207-13.905,3.475-20.155,6.937c-4.914,2.721-8.598,6.291-10.832,11.376C79.729,64.545,74.43,76.587,69.079,88.592
		c-0.971,2.178-1.368,4.358-1.163,6.696c0.27,3.092,0.495,6.187,0.768,9.278c0.851,9.641,2.546,19.205,2.475,28.932
		c-0.043,5.967,1.251,11.672,3.896,17.049c3.289,6.688,6.554,13.386,9.859,20.066l-0.183,0.219c0.316,0.639,0.629,1.281,0.946,1.92
		c2.722,5.482,6.861,9.918,11.764,13.491c5.874,4.28,11.559,7.035,18.559,8.452v-12.77V176.208z M109.979,63.902
		c0.053-0.387,0.579-0.815,0.89-1.166c0.297,0.319,0.837,0.576,0.85,0.905c0.077,1.976,0.072,3.936-0.015,5.912
		c-0.014,0.313-0.586,0.587-0.9,0.888c-0.288-0.321-0.779-0.411-0.822-0.761c-0.115-0.949-0.04-1.679-0.04-2.679
		c-0.002,0-0.004,0-0.006,0C109.937,65,109.849,64.848,109.979,63.902z M104.078,48.561c0.043-0.358,0.522-0.664,0.803-0.994
		c0.313,0.345,0.88,0.677,0.897,1.036c0.09,1.917,0.083,3.844,0.007,5.763c-0.014,0.339-0.518,0.659-0.795,0.987
		c-0.318-0.343-0.857-0.656-0.911-1.038c-0.033-0.235-0.053-0.473-0.063-0.711c-0.031-0.717,0.02-1.444,0.02-2.165
		C104.04,50.479,103.964,49.508,104.078,48.561z M98.535,48.574c0.018-0.351,0.626-0.672,0.962-1.007
		c0.275,0.334,0.745,0.646,0.788,1.009c0.111,0.95,0.038,1.922,0.038,2.886c0,0.682,0.048,1.371,0.021,2.05
		c-0.009,0.226-0.027,0.451-0.057,0.675c-0.057,0.418-0.512,0.782-0.786,1.171c-0.338-0.335-0.952-0.657-0.969-1.008
		C98.437,52.428,98.438,50.496,98.535,48.574z"/>
	<path fill="none" d="M121.446,187.839c0.426,0.008,0.852,0.005,1.278,0.011l-1.806-1.536c-0.305,0.183-0.605,0.453-0.909,0.635
		C120.487,187.26,120.962,187.832,121.446,187.839z"/>
	<path fill="#FFE133" d="M121.446,187.839c-0.484-0.008-0.958-0.579-1.437-0.89c0.304-0.182,0.727-0.452,1.032-0.635L116,181.923
		v12.77c5,1.155,10.458,1.417,15.946,0.895l-9.161-7.737C122.359,187.845,121.872,187.848,121.446,187.839z"/>
	<path fill="none" d="M116,175.029v1.179c0,0.269,0.794,0.509,1.185,0.518c1.24,0.031,2.483,0.045,3.779,0.05l1.852-1.883
		c-1.897,0.001-3.688-0.002-5.584,0C116.79,174.894,116,174.829,116,175.029z"/>
	<path fill="none" d="M119.237,135.154l-2.819-2.083l-0.125,0.15l2.676,1.977c-0.404,0.412-0.812,0.82-1.21,1.238
		c-0.181,0.189-0.157,0.708-0.042,1.001c0.091,0.232,0.468,0.351,0.662,0.483c0.208-0.066,0.338-0.069,0.405-0.135
		c0.524-0.521,1.048-1.042,1.571-1.564l11.836,8.744l-0.801-0.834l-10.768-7.954c0.535-0.532,1.068-1.066,1.598-1.604l-1.177-1.227
		C120.435,133.943,119.833,134.545,119.237,135.154z"/>
	<path fill="none" d="M120.848,153.111c-0.278,0.176-0.559-0.111-0.838,0.889c0,0-0.007,0-0.006,0c-0.001,0-0.014,0-0.014,0
		c0.289,0,0.583,0.208,0.871,0.404c0.173,0.117,0.192,0.049,0.372,0.058c1.975,0.101,4.767-0.083,5.767-0.083
		c0,0.002,0,0.004,0,0.006c3,0,4.139,0.059,6.114-0.042c0.488-0.024,1.055-0.565,1.529-0.869c-0.438-0.286-0.837-0.813-1.279-0.82
		c-4.014-0.064-8.014,0.075-12.028,0.138C121.167,152.794,121.015,153.006,120.848,153.111z"/>
	<path fill="none" d="M117.153,159.127c0.041,0.354,0.836,0.84,1.387,0.857c2.882,0.086,5.46,0.04,8.46,0.04
		c0-0.002,0-0.005,0-0.007c3,0,5.854,0.052,8.683-0.042c0.594-0.02,1.756-0.524,1.792-0.885c0.106-1.089-0.881-0.922-1.597-0.924
		c-5.715-0.011-11.42-0.01-17.135,0C118.02,158.169,117.026,158.021,117.153,159.127z"/>
	<path fill="none" d="M117.104,163.748c-0.411,0.003-1.104,0.347-1.104,0.646v0.491c0,0.295,0.664,0.63,1.064,0.64
		c3.425,0.081,6.791,0.042,10.217,0.046c1.631,0,3.23-0.002,4.86-0.002l1.878-1.833C128.366,163.703,122.758,163.7,117.104,163.748z
		"/>
	<path fill="none" d="M121.714,169.171c-1.945,0.001-3.714,0.152-5.714,0.178v1.796c3,0.001,7.063-0.173,10.657-0.173l1.677-1.972
		c-0.325,0-0.65,0-0.975,0C125.437,169,123.638,169.17,121.714,169.171z"/>
	<path fill="none" d="M119.915,143.323c1.099-1.096,2.23-2.161,3.268-3.311c0.255-0.282,0.286-0.852,0.248-1.274
		c-0.016-0.184-0.466-0.329-0.735-0.501c-0.286,0.183-0.419,0.29-0.601,0.469c-2.087,2.067-4.095,4.128-6.095,6.244v1.718
		c0-0.011,0.616-0.017,0.83-0.204C117.955,145.481,118.855,144.381,119.915,143.323z"/>
	<path fill="#FFE133" d="M117.064,165.523c-0.4-0.01-1.064-0.344-1.064-0.64v4.465c2-0.026,3.769-0.176,5.714-0.178
		c1.923-0.001,3.723-0.171,5.645-0.171c0.325,0,0.65,0,0.975,0l3.777-3.604c-1.63,0-3.199,0.088-4.83,0.088
		C123.855,165.479,120.489,165.604,117.064,165.523z"/>
	<path fill="#FFE133" d="M122.466,110.573c-1.439,0.35-2.331,1.099-3.025,2.462c-1.176,2.312-2.441,4.614-3.441,6.917v7.882v0.897
		v16.22c2-2.116,4.007-4.177,6.095-6.244c0.182-0.18,0.376-0.287,0.663-0.469c0.269,0.173,0.688,0.317,0.704,0.501
		c0.038,0.422-0.008,0.992-0.263,1.274c-1.038,1.15-2.177,2.214-3.276,3.311c-1.06,1.058-1.963,2.158-3.089,3.142
		c-0.214,0.187-0.833,0.192-0.833,0.204v17.725c0-0.299,0.693-0.642,1.104-0.646c5.654-0.048,11.247-0.045,16.901-0.013l8.266-8.297
		l-10.063-10.473l-11.844-8.744c-0.523,0.521-1.051,1.043-1.575,1.564c-0.066,0.066-0.199,0.069-0.407,0.135
		c-0.194-0.132-0.572-0.251-0.663-0.483c-0.115-0.293-0.139-0.812,0.042-1.001c0.398-0.417,0.805-0.826,1.209-1.238l-2.676-1.977
		l0.125-0.15l2.819,2.083c0.596-0.609,1.198-1.211,1.806-1.807l-4.851-5.055l17.449-17.449c-0.219-0.088-0.446-0.167-0.691-0.229
		C129.459,109.733,125.969,109.721,122.466,110.573z M137.543,159.091c-0.035,0.36-1.267,0.865-1.861,0.885
		c-2.828,0.093-5.683,0.042-8.683,0.042c0,0.002,0,0.004,0,0.007c-3,0-5.578,0.046-8.46-0.04c-0.551-0.017-1.416-0.503-1.456-0.857
		c-0.127-1.106,0.918-0.958,1.641-0.96c5.715-0.01,11.455-0.011,17.17,0C136.611,158.169,137.65,158.002,137.543,159.091z
		 M133.399,152.654c0.442,0.007,0.875,0.534,1.313,0.82c-0.474,0.304-1.11,0.845-1.598,0.869c-1.976,0.101-3.114,0.042-6.114,0.042
		c0-0.002,0-0.003,0-0.006c-1,0-3.792,0.06-5.767-0.042c-0.18-0.009-0.269,0.183-0.441,0.066c-0.288-0.196-0.513-0.404-0.802-0.404
		c0,0,0.013,0,0.014,0c-0.001,0,0.006,0,0.006,0c0.279-1,0.56-0.713,0.838-0.889c0.167-0.105,0.336-0.317,0.505-0.319
		C125.367,152.729,129.385,152.59,133.399,152.654z"/>
	<path fill="#FFE133" d="M116,175.029c0-0.2,0.775-0.135,1.216-0.135c1.896-0.002,3.733,0,5.63,0l3.842-3.75
		c-3.594,0-7.688,0.002-10.688,0.001V175.029z"/>
	<path fill="#FFE133" d="M116,176.208v5.716l5.025-5.147c-1.296-0.005-2.539-0.019-3.779-0.05
		C116.855,176.716,116,176.476,116,176.208z"/>
	<path fill="#FFE133" d="M131.391,144.131l-9.17-9.558c-0.529,0.537-1.062,1.071-1.598,1.604L131.391,144.131z"/>
	<path fill="none" d="M122.028,70.403c0.294-0.316,0.799-0.381,0.842-0.729C122.988,68.728,122.91,68,122.91,67
		c-0.002,0-0.004,0-0.007,0c0-2,0.074-2.241-0.041-3.242c-0.039-0.344-0.547-0.715-0.841-1.03c-0.291,0.319-0.82,0.564-0.833,0.894
		c-0.079,1.972-0.078,3.914,0.001,5.885C121.202,69.83,121.735,70.091,122.028,70.403z"/>
	<path fill="none" d="M116,80.524l2.497-2.497C117.664,78.068,117,78.116,116,78.17V80.524z"/>
	<path fill="none" d="M133.192,62.616c-0.284,0.327-0.798,0.644-0.812,0.982c-0.004,0.104-0.006,0.207-0.01,0.311l1.056-1.056
		C133.342,62.774,133.262,62.696,133.192,62.616z"/>
	<path fill="none" d="M116.61,70.42c0.285-0.376,0.7-0.728,0.753-1.134c0.031-0.235,0.017-0.472,0.027-0.71
		c0.028-0.713-0.034-1.437-0.033-2.153c0-0.677,0.043-1.362,0.014-2.035c-0.01-0.224-0.033-0.447-0.065-0.668
		c-0.059-0.4-0.434-0.735-0.731-1.1c-0.197,0.216-0.574,0.428-0.574,0.645v6.523C116,70.001,116.401,70.208,116.61,70.42z"/>
	<path fill="none" d="M128.549,67c0-2,0.079-2.221-0.042-3.163c-0.043-0.339-0.565-1.024-0.871-1.026s-0.87,0.467-0.883,0.781
		c-0.086,1.966-0.098,3.915-0.008,5.88c0.001,0.025,0.011,0.035,0.019,0.059l1.813-1.575C128.57,67.584,128.56,67,128.56,67
		C128.557,67,128.553,67,128.549,67z"/>
	<path fill="#FFE133" d="M116.572,62.621c0.297,0.365,0.732,0.7,0.791,1.1c0.033,0.221,0.021,0.444,0.031,0.668
		c0.03,0.673-0.037,1.357-0.037,2.035c-0.001,0.717,0.038,1.44,0.01,2.153c-0.01,0.238-0.031,0.475-0.062,0.71
		c-0.053,0.406-0.409,0.757-0.693,1.134c-0.209-0.212-0.612-0.419-0.612-0.632v8.382c1-0.055,1.541-0.102,2.374-0.143l8.451-8.512
		c-0.007-0.025-0.048-0.05-0.049-0.075c-0.09-1.965-0.094-3.945-0.007-5.911c0.014-0.314,0.569-0.844,0.875-0.842
		s0.824,0.811,0.867,1.149c0.12,0.942,0.038,1.163,0.038,3.163c0.004,0,0.008,0,0.011,0c0,0,0.01,0.577,0.017,0.948l3.793-3.917
		c0.004-0.104,0.006-0.269,0.01-0.372c0.014-0.338,0.528-0.686,0.812-1.013c0.07,0.08,0.15,0.143,0.234,0.221l8.813-8.821
		l-19.677-20.641C120.257,33.581,118,33.84,116,34.197v29.068C116,63.049,116.375,62.837,116.572,62.621z M121.188,63.56
		c0.013-0.33,0.542-0.636,0.833-0.955c0.294,0.315,0.802,0.81,0.841,1.153c0.114,1.001,0.041,1.242,0.041,3.242
		c0.002,0,0.005,0,0.007,0c0,1,0.078,1.728-0.041,2.674c-0.042,0.347-0.547,0.536-0.842,0.852c-0.292-0.312-0.826-0.665-0.838-0.989
		C121.11,67.565,121.11,65.532,121.188,63.56z"/>
</g>
<g>
	<path fill="#595959" d="M268.679,68.076c2.253,0,4.677,0.025,7.274,0.074c2.596,0.051,5.167,0.198,7.716,0.44
		c2.546,0.247,4.923,0.614,7.128,1.103c2.203,0.492,4.088,1.226,5.658,2.204c3.428,2.058,6.342,4.9,8.744,8.524
		c2.399,3.626,3.6,8.083,3.6,13.374c0,5.585-1.348,10.412-4.042,14.477c-2.695,4.066-6.54,7.079-11.536,9.038v0.294
		c6.467,1.373,11.413,4.312,14.844,8.817c3.428,4.507,5.144,9.993,5.144,16.459c0,3.822-0.688,7.545-2.058,11.17
		c-1.374,3.625-3.405,6.833-6.1,9.625c-2.695,2.792-6.025,5.047-9.992,6.76c-3.969,1.716-8.55,2.573-13.741,2.573h-50.702V68.076
		H268.679z M272.499,113.193c7.937,0,13.643-1.396,17.122-4.188c3.477-2.792,5.217-6.98,5.217-12.566
		c0-3.721-0.588-6.662-1.764-8.817c-1.176-2.154-2.792-3.821-4.85-4.997c-2.059-1.176-4.434-1.933-7.129-2.277
		c-2.695-0.343-5.561-0.515-8.597-0.515h-27.922v33.36H272.499z M279.553,161.25c6.174,0,10.999-1.665,14.477-4.997
		c3.477-3.33,5.217-7.935,5.217-13.814c0-3.428-0.638-6.268-1.91-8.523c-1.273-2.252-2.965-4.042-5.07-5.364
		c-2.107-1.322-4.531-2.252-7.273-2.792c-2.745-0.538-5.586-0.808-8.524-0.808h-31.891v36.299H279.553z"/>
	<path fill="#595959" d="M326.215,68.076v104.932h-12.49V68.076H326.215z"/>
	<path fill="#595959" d="M327.346,83.36V68.076h12.49V83.36H327.346z M339.836,97.027v75.98h-12.49v-75.98H339.836z"/>
	<path fill="#595959" d="M381.526,97.333v11.022h-15.135v47.174c0,1.471,0.121,2.646,0.366,3.527
		c0.243,0.882,0.708,1.568,1.396,2.058c0.684,0.492,1.641,0.809,2.866,0.955s2.814,0.221,4.777,0.221h5.729v11.022h-9.551
		c-3.233,0-6.004-0.221-8.304-0.661c-2.304-0.441-4.166-1.25-5.585-2.426c-1.423-1.175-2.475-2.84-3.159-4.997
		c-0.688-2.153-1.029-4.996-1.029-8.523v-48.35h-12.932V97.333h12.932v-22.78h12.493v22.78H381.526z"/>
	<path fill="#595959" d="M425.583,108.395h-42.912V97.373h59.078v8.524l-46.44,56.434h48.498v11.022h-64.075v-9.553L425.583,108.395
		z"/>
</g>
</svg>
