<?xml version="1.0" encoding="utf-8"?>
<!-- Generator: Adobe Illustrator 16.0.0, SVG Export Plug-In . SVG Version: 6.00 Build 0)  -->
<!DOCTYPE svg PUBLIC "-//W3C//DTD SVG 1.1 Tiny//EN" "http://www.w3.org/Graphics/SVG/1.1/DTD/svg11-tiny.dtd">
<svg version="1.1" baseProfile="tiny" id="Layer_1" xmlns="http://www.w3.org/2000/svg" xmlns:xlink="http://www.w3.org/1999/xlink"
	 x="0px" y="0px" width="122.709px" height="162.627px" viewBox="0 0 122.709 162.627" xml:space="preserve">
<path fill="none" d="M88.942,16.2c-0.011-0.224-0.033-0.446-0.07-0.666c-0.075-0.437-0.617-0.795-0.946-1.189
	c-0.285,0.374-0.799,0.736-0.817,1.122c-0.085,1.855-0.086,3.72,0.001,5.575c0.018,0.38,0.542,0.736,0.834,1.103
	c0.324-0.347,0.872-0.661,0.928-1.046c0.035-0.234,0.054-0.47,0.065-0.708c0.032-0.713-0.02-1.438-0.02-2.155
	C88.916,17.559,88.976,16.871,88.942,16.2z"/>
<path fill="none" d="M82.408,14.374c-0.279,0.327-0.755,0.891-0.797,1.246c-0.112,0.947-0.038,1.163-0.038,3.163
	c0.003,0,0.005,0,0.009,0c0,1-0.074,1.75,0.042,2.75c0.038,0.326,0.532,0.561,0.893,0.664c0.181,0.052,0.759-0.541,0.77-0.824
	c0.072-2.024,0.084-4.069,0.009-6.093C83.283,14.973,82.717,14.669,82.408,14.374z"/>
<path fill="#595959" d="M122.113,57.03c-1.322-3.205-2.638-6.414-3.96-9.619l0.183-0.253c-2.154-5.223-4.333-10.437-6.636-15.594
	c-2.523-5.653-5.455-11.129-8.357-16.604c-0.753-1.42-1.872-2.839-3.18-3.741C89.094,3.58,76.812-0.208,65.463,0.009
	c-2.568-0.006-5.033,0.081-7.412,0.261l19.801,20.637l-8.813,8.813c0.287,0.267,0.609,0.529,0.65,0.83
	c0.033,0.236,0.051,0.474,0.061,0.713c0.031,0.717-0.019,1.446-0.018,2.167c0,0.908,0.086,1.829-0.038,2.72
	c-0.058,0.412-0.527,0.766-0.81,1.146c-0.311-0.354-0.873-0.696-0.89-1.063c-0.085-1.816-0.08-3.639-0.012-5.457l-3.794,3.794
	c0.011,0.606,0.014,1.167-0.056,1.787c-0.039,0.355-0.532,0.634-0.817,0.962c-0.311-0.308-0.85-0.616-0.939-0.936l-8.513,8.513
	c5.621-0.275,11.267-0.25,16.926-0.035c10.135,0.385,20.165,1.519,29.879,4.621c4.167,1.33,8.163,3.025,11.74,5.601l-0.11,0.154
	c0.06,0.043,0.121,0.082,0.18,0.125c0.904,0.67,1.254,1.404,1.248,2.547c-0.046,9.369-0.048,18.739,0.005,28.108
	c0.007,1.232-0.317,2.135-1.236,2.927c-2.633,2.269-5.209,4.604-7.853,6.863c-3.914,3.345-8.748,3.876-13.574,4.042
	c-2.856,0.098-5.75-0.342-8.593-0.766c-0.35-0.052-0.728-0.246-1.076-0.505l0.114-0.159c-0.359-0.295-0.672-0.658-0.86-1.008
	c-3.13-5.843-6.171-11.735-9.184-17.64c-0.523-1.026-1.255-1.675-2.214-2.061L51.806,95.159l4.851,5.056
	c0.465-0.456,0.932-0.909,1.409-1.352c0.208-0.194,0.829-0.149,1.121,0.022c0.197,0.116,0.331,0.813,0.188,0.963
	c-0.507,0.537-1.022,1.066-1.541,1.593l9.17,9.558l3.422,2.527l-0.114,0.159l-2.507-1.852l10.048,10.473l-8.297,8.296
	c1.253,0.007,2.506,0.006,3.759,0.017c0.544,0.005,1.504,0.5,1.548,0.856c0.137,1.123-0.865,0.954-1.588,0.957
	c-1.85,0.006-3.701,0.003-5.551,0.002l-3.777,3.776c3.948,0.001,7.896,0,11.844,0.003c0.426,0,0.891-0.056,1.265,0.093
	c0.282,0.112,0.617,0.513,0.619,0.787c0.002,0.274-0.333,0.708-0.606,0.791c-0.495,0.152-1.053,0.124-1.584,0.124
	c-4.446,0.003-8.891,0.002-13.337,0.002l-3.75,3.75c4.959-0.002,9.919-0.004,14.878-0.001c0.735,0,1.729-0.127,1.58,0.982
	c-0.049,0.359-0.948,0.836-1.499,0.849c-3.424,0.079-7.219,0.04-10.219,0.04c0,0.002,0,0.004,0,0.005c-2,0-4.218,0.018-6.499,0.008
	l-5.209,5.148l5.133,4.391c0.182-0.11,0.35-0.188,0.538-0.198c1.976-0.097,3.952-0.041,5.932-0.042
	c1.98-0.001,3.959-0.052,5.936,0.037c0.459,0.02,0.896,0.511,1.345,0.786c-0.457,0.325-0.909,0.924-1.372,0.933
	c-3.534,0.07-7.069,0.07-10.604,0.02l9.1,7.737c3.175-0.301,6.391-0.862,9.641-1.672c11.299-2.813,20.602-9.037,26.396-19.236
	c4.925-8.671,8.883-17.893,13.212-26.897c1.713-3.566,2.339-7.395,2.593-11.338c0.512-7.896,1.179-15.784,1.813-23.672
	c0.523-6.504,1.131-13.003,1.606-19.512C122.771,59.111,122.508,57.986,122.113,57.03z M75.333,36.306
	c-0.016,0.345-0.637,0.661-0.979,0.99c-0.276-0.386-0.737-0.75-0.791-1.165c-0.03-0.235-0.047-0.473-0.056-0.711
	c-0.027-0.715,0.019-1.439,0.019-2.158c0.002-0.904-0.089-1.823,0.044-2.708c0.059-0.392,0.573-0.715,0.88-1.07
	c0.306,0.306,0.864,0.601,0.878,0.92C75.413,32.37,75.425,34.342,75.333,36.306z M80.964,35.465
	c-0.009,0.225-0.027,0.448-0.058,0.67c-0.057,0.416-0.512,0.776-0.787,1.162c-0.339-0.387-0.948-0.759-0.971-1.164
	c-0.106-1.854-0.099-3.719-0.006-5.574c0.018-0.372,0.584-0.716,0.897-1.073c0.3,0.358,0.809,0.688,0.862,1.081
	c0.032,0.234,0.05,0.471,0.061,0.709c0.029,0.713-0.02,1.437-0.019,2.155C80.945,34.107,80.992,34.792,80.964,35.465z
	 M86.762,21.399c-0.011,0.283-0.589,0.817-0.77,0.765c-0.361-0.104-0.855-0.263-0.893-0.589c-0.116-1-0.042-1.793-0.042-2.793
	c-0.003,0-0.006,0-0.009,0c0-1-0.075-2.173,0.038-3.12c0.042-0.355,0.518-0.78,0.796-1.106c0.31,0.296,0.875,0.521,0.888,0.828
	C86.847,17.407,86.835,19.375,86.762,21.399z M92.413,20.476c-0.011,0.237-0.03,0.474-0.065,0.708
	c-0.056,0.386-0.604,0.7-0.928,1.047c-0.292-0.367-0.816-0.724-0.834-1.103c-0.088-1.856-0.087-3.72-0.001-5.576
	c0.018-0.386,0.532-0.749,0.816-1.122c0.33,0.394,0.871,0.751,0.946,1.189c0.037,0.219,0.06,0.441,0.07,0.666
	c0.033,0.671-0.026,1.359-0.024,2.037C92.394,19.039,92.445,19.763,92.413,20.476z M57.715,96.613
	c-0.46-0.752-0.933-1.328-0.851-1.423c0.549-0.637,1.211-1.18,1.876-1.701c0.021-0.016,0.751,0.691,0.695,0.785
	C59.002,94.992,58.455,95.643,57.715,96.613z M67.792,93.484c0.73,0.422,1.396,0.956,2.393,1.68
	c-0.728,0.476-1.289,0.965-1.387,0.886c-0.656-0.532-1.223-1.178-1.765-1.832C67.012,94.193,67.704,93.433,67.792,93.484z
	 M67.317,98.875c0.208-0.188,0.824-0.264,0.991-0.106c1.581,1.506,3.108,3.068,4.638,4.625c0.099,0.101,0.107,0.292,0.268,0.771
	c-0.484,0.154-1.193,0.57-1.369,0.408c-1.641-1.511-3.207-3.104-4.738-4.727C66.968,99.699,67.108,99.063,67.317,98.875z
	 M74.767,113.684c-0.418,0.01-0.953-0.146-1.248-0.431c-0.524-0.506-1.042-1.021-1.561-1.533l0.13-0.181
	c-1.53-1.506-3.05-3.024-4.571-4.542c-0.114-0.112-0.31-0.238-0.307-0.355c0.007-0.431-0.038-0.942,0.178-1.259
	c0.113-0.166,0.88-0.149,1.091,0.054c1.531,1.474,3.039,2.972,4.542,4.475l-0.131,0.182c0.721,0.721,1.441,1.44,2.161,2.162
	c0.14,0.141,0.191,0.37,0.341,0.675C75.195,113.185,74.986,113.679,74.767,113.684z M71.764,149.119
	c-2.936,0.077-5.875,0.038-8.814,0.038c-2.885,0-5.771,0.045-8.653-0.039c-0.538-0.016-1.061-0.547-1.59-0.841
	c0.519-0.323,1.036-0.922,1.56-0.929c5.822-0.066,11.647-0.067,17.469,0.002c0.508,0.007,1.008,0.637,1.513,0.978
	C72.753,148.604,72.265,149.106,71.764,149.119z"/>
<g>
	<path fill="none" d="M47.544,112.086c-0.247,0.258-0.069,0.92-0.088,1.395c0.137-0.02,0.285-0.025,0.435-0.03v-1.718
		C47.776,111.851,47.658,111.967,47.544,112.086z"/>
	<path fill="none" d="M47.531,131.418c0.12,0.072,0.24,0.159,0.359,0.248v-0.491C47.771,131.263,47.651,131.348,47.531,131.418z"/>
	<path fill="none" d="M42.079,33.782c0,1-0.076,1.722,0.04,2.671c0.042,0.351,0.534,0.556,0.822,0.876
		c0.314-0.3,0.886-0.651,0.9-0.964c0.087-1.976,0.091-3.997,0.015-5.973c-0.013-0.33-0.553-0.663-0.85-0.982
		c-0.311,0.352-0.836,0.895-0.89,1.282c-0.13,0.946-0.042,1.09-0.042,3.09C42.075,33.782,42.077,33.782,42.079,33.782z"/>
	<path fill="none" d="M36.153,20.387c0.011,0.239,0.03,0.476,0.063,0.711c0.053,0.381,0.592,0.694,0.911,1.038
		c0.277-0.328,0.781-0.648,0.795-0.987c0.076-1.919,0.083-3.845-0.007-5.763c-0.017-0.359-0.584-0.691-0.897-1.036
		c-0.281,0.33-0.76,0.635-0.803,0.994c-0.114,0.947-0.038,1.917-0.042,2.878C36.173,18.942,36.123,19.67,36.153,20.387z"/>
	<path fill="none" d="M46.162,136.172c-0.434,0.015-0.913,0.556-1.338,0.854c0.429,0.298,0.801,0.582,1.268,0.802
		c0.263,0.124,0.6-0.046,0.92-0.046c0.292,0,0.125,0,1.125,0v-1.651C47.137,136.14,46.779,136.152,46.162,136.172z"/>
	<path fill="none" d="M31.636,22.14c0.274-0.389,0.729-0.753,0.786-1.171c0.03-0.224,0.048-0.449,0.057-0.675
		c0.027-0.679-0.021-1.368-0.021-2.05c0-0.964,0.073-1.936-0.038-2.886c-0.043-0.362-0.512-0.674-0.788-1.009
		c-0.335,0.335-0.944,0.656-0.962,1.007c-0.096,1.922-0.098,3.854-0.004,5.775C30.685,21.482,31.298,21.804,31.636,22.14z"/>
	<path fill="none" d="M47.795,30.454c-0.093,1.907-0.033,3.824,0.061,5.731c0.006,0.132,0.281,0.26,0.281,0.386v-6.523
		C48.137,30.181,47.802,30.315,47.795,30.454z"/>
	<path fill="none" d="M59.84,37.232c0.286-0.327,0.778-0.606,0.817-0.962c0.07-0.62,0.067-1.18,0.056-1.787L58.9,36.297
		C58.99,36.617,59.529,36.924,59.84,37.232z"/>
	<path fill="none" d="M55.897,99.763c0.143-0.15,0.009-0.848-0.188-0.964c-0.292-0.171-0.913-0.216-1.121-0.022
		c-0.477,0.444-0.943,0.897-1.409,1.352l1.177,1.227C54.875,100.829,55.39,100.299,55.897,99.763z"/>
	<path fill="none" d="M64.52,36.147c0.017,0.367,0.579,0.709,0.89,1.062c0.282-0.38,0.751-0.735,0.81-1.146
		c0.124-0.891,0.038-1.811,0.038-2.72c-0.001-0.721,0.048-1.449,0.018-2.167c-0.01-0.239-0.029-0.477-0.062-0.713
		c-0.042-0.3-0.363-0.562-0.65-0.83l-1.056,1.056C64.439,32.508,64.435,34.332,64.52,36.147z"/>
	<polygon fill="none" points="66.835,113.599 66.949,113.44 63.527,110.913 64.328,111.748 	"/>
	<path fill="none" d="M72.008,137.924c0.531,0,1.09,0.028,1.584-0.124c0.273-0.083,0.609-0.517,0.606-0.791
		c-0.002-0.273-0.337-0.674-0.619-0.787c-0.375-0.15-0.839-0.093-1.266-0.093c-3.948-0.004-7.896-0.002-11.844-0.003l-1.8,1.8
		C63.117,137.926,67.562,137.927,72.008,137.924z"/>
	<path fill="none" d="M47.584,142.596c0.012,0.122,0.135,0.261,0.307,0.394v-1.179C47.674,141.938,47.542,142.169,47.584,142.596z"
		/>
	<path fill="none" d="M69.798,132.347c0.723-0.003,1.725,0.166,1.588-0.957c-0.043-0.355-1.003-0.851-1.548-0.856
		c-1.253-0.011-2.506-0.01-3.759-0.017l-1.832,1.833C66.098,132.35,67.949,132.353,69.798,132.347z"/>
	<path fill="none" d="M59.137,143.55c0-0.001,0-0.003,0-0.005c4,0,7.058,0.039,10.481-0.04c0.552-0.012,1.643-0.49,1.691-0.849
		c0.15-1.109-0.81-0.982-1.544-0.982c-4.958-0.004-9.901-0.001-14.861,0.001l-2.013,1.883
		C55.173,143.568,57.137,143.55,59.137,143.55z"/>
	<path fill="none" d="M55.265,93.403c-0.666,0.521-1.327,1.064-1.876,1.701c-0.083,0.096,0.391,0.671,0.851,1.423
		c0.74-0.97,1.288-1.62,1.721-2.339C56.016,94.094,55.286,93.387,55.265,93.403z"/>
	<path fill="none" d="M77.486,31.19c-0.01-0.237-0.029-0.474-0.06-0.709c-0.053-0.392-0.562-0.723-0.862-1.081
		c-0.313,0.357-0.879,0.702-0.897,1.073c-0.093,1.855-0.099,3.72,0.006,5.574c0.024,0.405,0.632,0.777,0.971,1.164
		c0.275-0.386,0.73-0.746,0.787-1.162c0.03-0.222,0.048-0.445,0.058-0.669c0.027-0.674-0.02-1.358-0.021-2.035
		C77.467,32.627,77.516,31.903,77.486,31.19z"/>
	<path fill="none" d="M65.322,95.965c0.098,0.08,0.659-0.41,1.387-0.886c-0.997-0.725-1.663-1.258-2.392-1.68
		c-0.088-0.051-0.78,0.709-0.76,0.733C64.099,94.787,64.666,95.433,65.322,95.965z"/>
	<path fill="none" d="M70.974,29.4c-0.307,0.354-0.821,0.678-0.88,1.07c-0.133,0.884-0.042,1.803-0.044,2.708
		c0,0.718-0.046,1.442-0.019,2.157c0.009,0.238,0.027,0.476,0.057,0.711c0.053,0.415,0.514,0.778,0.791,1.165
		c0.341-0.329,0.962-0.646,0.978-0.99c0.092-1.964,0.081-3.936-0.004-5.9C71.838,30.001,71.28,29.706,70.974,29.4z"/>
	<path fill="none" d="M50.79,147.263c-0.523,0.007-1.041,0.606-1.56,0.929c0.529,0.294,1.053,0.825,1.59,0.841
		c2.882,0.084,5.769,0.039,8.653,0.039c2.939,0,5.878,0.039,8.814-0.038c0.501-0.012,0.989-0.515,1.483-0.791
		c-0.504-0.341-1.004-0.971-1.512-0.978C62.437,147.195,56.612,147.196,50.79,147.263z"/>
	<path fill="none" d="M69.415,110.008l0.13-0.182c-1.503-1.502-3.011-3-4.542-4.475c-0.212-0.204-0.979-0.22-1.092-0.054
		c-0.215,0.316-0.171,0.828-0.178,1.258c-0.002,0.117,0.193,0.243,0.307,0.356c1.521,1.517,3.041,3.035,4.571,4.542l-0.13,0.181
		c0.52,0.512,1.037,1.027,1.561,1.533c0.295,0.285,0.83,0.441,1.248,0.431c0.22-0.004,0.428-0.499,0.626-0.753
		c-0.15-0.305-0.202-0.534-0.341-0.675C70.856,111.448,70.136,110.729,69.415,110.008z"/>
	<path fill="none" d="M68.369,104.487c0.176,0.163,0.885-0.253,1.369-0.408c-0.16-0.479-0.168-0.669-0.267-0.771
		c-1.531-1.557-3.058-3.12-4.639-4.625c-0.167-0.159-0.783-0.082-0.991,0.106c-0.208,0.188-0.349,0.823-0.21,0.971
		C65.162,101.383,66.728,102.977,68.369,104.487z"/>
	<path fill="none" d="M65.464,154.613c0.463-0.009,0.915-0.608,1.371-0.933c-0.449-0.275-0.888-0.766-1.347-0.786
		c-1.977-0.089-3.96-0.039-5.94-0.037c-1.98,0.002-3.963-0.054-5.939,0.042c-0.188,0.01-0.372,0.088-0.554,0.198l1.806,1.536
		C58.395,154.682,61.93,154.682,65.464,154.613z"/>
	<path fill="#595959" d="M48.137,142.99c0-0.132-0.294-0.271-0.307-0.394c-0.042-0.427,0.307-0.658,0.307-0.785v-4.029
		c-1,0-0.832,0-1.125,0c-0.32,0-0.688,0.169-0.951,0.046c-0.467-0.221-0.87-0.54-1.299-0.839c0.425-0.298,0.965-0.82,1.399-0.835
		c0.617-0.021,0.975-0.015,1.975-0.023v-4.465c0-0.089-0.239-0.176-0.359-0.248c0.12-0.07,0.359-0.155,0.359-0.243v-17.725
		c0,0.005-0.421,0.011-0.558,0.03c0.019-0.475-0.097-1.137,0.15-1.395c0.114-0.119,0.408-0.235,0.408-0.354v-16.22v-0.897v-7.882
		c-2,3.487-3.746,6.973-5.515,10.481c-0.543,1.078-1.297,1.624-2.426,1.868c-5.836,1.261-11.681,0.958-17.319-0.785
		c-2.169-0.67-4.172-2.191-6.002-3.63c-2.433-1.914-4.683-4.079-6.901-6.246c-0.526-0.514-0.876-1.457-0.889-2.208
		c-0.02-1.191-0.034-2.382-0.042-3.574c-0.022-3.573-0.001-7.148-0.001-10.722c0.001-4.711,0.036-9.423-0.024-14.134
		c-0.014-1.139,0.346-1.878,1.253-2.549c4.919-3.63,10.677-5.623,16.51-7.08c7.017-1.753,14.356-2.735,21.356-3.202v-8.382
		c0-0.126-0.336-0.254-0.342-0.386c-0.094-1.907-0.031-3.824,0.062-5.731c0.007-0.139,0.28-0.273,0.28-0.406V0.979
		c-8,1.207-13.905,3.475-20.155,6.937c-4.914,2.721-8.598,6.291-10.832,11.376C11.866,31.328,6.567,43.37,1.216,55.374
		c-0.971,2.178-1.368,4.358-1.163,6.696c0.27,3.092,0.495,6.187,0.768,9.278c0.851,9.641,2.546,19.205,2.475,28.932
		c-0.043,5.967,1.251,11.672,3.896,17.049c3.289,6.688,6.554,13.386,9.859,20.066l-0.183,0.219c0.316,0.639,0.629,1.281,0.946,1.92
		c2.722,5.482,6.861,9.918,11.764,13.491c5.874,4.28,11.559,7.035,18.559,8.452v-12.77V142.99z M42.116,30.684
		c0.053-0.387,0.579-0.815,0.89-1.166c0.297,0.319,0.837,0.576,0.85,0.905c0.077,1.976,0.072,3.936-0.015,5.912
		c-0.014,0.313-0.586,0.587-0.9,0.888c-0.288-0.321-0.779-0.411-0.822-0.761c-0.115-0.949-0.04-1.679-0.04-2.679
		c-0.002,0-0.004,0-0.006,0C42.073,31.782,41.985,31.63,42.116,30.684z M36.214,15.343c0.043-0.358,0.522-0.664,0.803-0.994
		c0.313,0.345,0.88,0.677,0.897,1.036c0.09,1.917,0.083,3.844,0.007,5.763c-0.014,0.339-0.518,0.659-0.795,0.987
		c-0.318-0.343-0.857-0.656-0.911-1.038c-0.033-0.235-0.053-0.473-0.063-0.711c-0.031-0.717,0.02-1.444,0.02-2.165
		C36.176,17.261,36.101,16.291,36.214,15.343z M30.671,15.356c0.018-0.351,0.626-0.672,0.962-1.007
		c0.275,0.334,0.745,0.646,0.788,1.009c0.111,0.95,0.038,1.922,0.038,2.886c0,0.682,0.048,1.371,0.021,2.05
		c-0.009,0.226-0.027,0.451-0.057,0.675c-0.057,0.418-0.512,0.782-0.786,1.171c-0.338-0.335-0.952-0.657-0.969-1.008
		C30.573,19.21,30.575,17.278,30.671,15.356z"/>
	<path fill="none" d="M53.583,154.622c0.426,0.008,0.852,0.005,1.278,0.011l-1.806-1.536c-0.305,0.183-0.605,0.453-0.909,0.635
		C52.624,154.042,53.099,154.614,53.583,154.622z"/>
	<path fill="#595959" d="M53.583,154.622c-0.484-0.008-0.958-0.579-1.437-0.89c0.304-0.182,0.727-0.452,1.032-0.635l-5.041-4.391
		v12.77c5,1.155,10.458,1.417,15.946,0.895l-9.161-7.737C54.496,154.627,54.008,154.63,53.583,154.622z"/>
	<path fill="none" d="M48.137,141.811v1.179c0,0.269,0.794,0.509,1.185,0.518c1.24,0.031,2.483,0.045,3.779,0.05l1.852-1.883
		c-1.897,0.001-3.688-0.002-5.584,0C48.927,141.676,48.137,141.611,48.137,141.811z"/>
	<path fill="none" d="M51.374,101.936l-2.819-2.083l-0.125,0.15l2.676,1.977c-0.404,0.412-0.812,0.82-1.21,1.238
		c-0.181,0.189-0.157,0.708-0.042,1.001c0.091,0.232,0.468,0.351,0.662,0.483c0.208-0.066,0.338-0.069,0.405-0.135
		c0.524-0.521,1.048-1.042,1.571-1.564l11.836,8.744l-0.801-0.834l-10.768-7.954c0.535-0.532,1.068-1.066,1.598-1.604l-1.177-1.227
		C52.572,100.725,51.97,101.327,51.374,101.936z"/>
	<path fill="none" d="M52.984,119.894c-0.278,0.176-0.559-0.111-0.838,0.889c0,0-0.007,0-0.006,0c-0.001,0-0.014,0-0.014,0
		c0.289,0,0.583,0.208,0.871,0.404c0.173,0.117,0.192,0.049,0.372,0.058c1.975,0.101,4.767-0.083,5.767-0.083
		c0,0.002,0,0.004,0,0.006c3,0,4.139,0.059,6.114-0.042c0.488-0.024,1.055-0.565,1.529-0.869c-0.438-0.286-0.837-0.813-1.279-0.82
		c-4.014-0.064-8.014,0.075-12.028,0.138C53.304,119.576,53.151,119.788,52.984,119.894z"/>
	<path fill="none" d="M49.29,125.91c0.041,0.354,0.836,0.84,1.387,0.857c2.882,0.086,5.46,0.04,8.46,0.04c0-0.002,0-0.005,0-0.007
		c3,0,5.854,0.052,8.683-0.042c0.594-0.02,1.756-0.524,1.792-0.885c0.106-1.089-0.881-0.922-1.597-0.924
		c-5.715-0.011-11.42-0.01-17.135,0C50.157,124.951,49.163,124.804,49.29,125.91z"/>
	<path fill="none" d="M49.24,130.53c-0.411,0.003-1.104,0.347-1.104,0.646v0.491c0,0.295,0.664,0.63,1.064,0.64
		c3.425,0.081,6.791,0.042,10.217,0.046c1.631,0,3.23-0.002,4.86-0.002l1.878-1.833C60.503,130.485,54.895,130.482,49.24,130.53z"/>
	<path fill="none" d="M53.851,135.954c-1.945,0.001-3.714,0.152-5.714,0.178v1.796c3,0.001,7.063-0.173,10.657-0.173l1.677-1.972
		c-0.325,0-0.65,0-0.975,0C57.574,135.782,55.774,135.953,53.851,135.954z"/>
	<path fill="none" d="M52.051,110.105c1.099-1.096,2.23-2.161,3.268-3.311c0.255-0.282,0.286-0.852,0.248-1.274
		c-0.016-0.184-0.466-0.329-0.735-0.501c-0.286,0.183-0.419,0.29-0.601,0.469c-2.087,2.067-4.095,4.128-6.095,6.244v1.718
		c0-0.011,0.616-0.017,0.83-0.204C50.092,112.264,50.992,111.163,52.051,110.105z"/>
	<path fill="#595959" d="M49.201,132.306c-0.4-0.01-1.064-0.344-1.064-0.64v4.465c2-0.026,3.769-0.176,5.714-0.178
		c1.923-0.001,3.723-0.171,5.645-0.171c0.325,0,0.65,0,0.975,0l3.777-3.604c-1.63,0-3.199,0.088-4.83,0.088
		C55.992,132.262,52.626,132.387,49.201,132.306z"/>
	<path fill="#595959" d="M54.603,77.355c-1.439,0.35-2.331,1.099-3.025,2.462c-1.176,2.312-2.441,4.614-3.441,6.917v7.882v0.897
		v16.22c2-2.116,4.007-4.177,6.095-6.244c0.182-0.18,0.376-0.287,0.663-0.469c0.269,0.173,0.688,0.317,0.704,0.501
		c0.038,0.422-0.008,0.992-0.263,1.274c-1.038,1.15-2.177,2.214-3.276,3.311c-1.06,1.058-1.963,2.158-3.089,3.142
		c-0.214,0.187-0.833,0.192-0.833,0.204v17.725c0-0.299,0.693-0.642,1.104-0.646c5.654-0.048,11.247-0.045,16.901-0.013l8.266-8.297
		l-10.063-10.473L52.5,103.004c-0.523,0.521-1.051,1.043-1.575,1.564c-0.066,0.066-0.199,0.069-0.407,0.135
		c-0.194-0.132-0.572-0.251-0.663-0.483c-0.115-0.293-0.139-0.812,0.042-1.001c0.398-0.417,0.805-0.826,1.209-1.238l-2.676-1.977
		l0.125-0.15l2.819,2.083c0.596-0.609,1.198-1.211,1.806-1.807l-4.851-5.055l17.449-17.449c-0.219-0.088-0.446-0.167-0.691-0.229
		C61.596,76.515,58.105,76.503,54.603,77.355z M69.68,125.874c-0.035,0.36-1.267,0.865-1.861,0.885
		c-2.828,0.093-5.683,0.042-8.683,0.042c0,0.002,0,0.004,0,0.007c-3,0-5.578,0.046-8.46-0.04c-0.551-0.017-1.416-0.503-1.456-0.857
		c-0.127-1.106,0.918-0.958,1.641-0.96c5.715-0.01,11.455-0.011,17.17,0C68.748,124.951,69.787,124.784,69.68,125.874z
		 M65.536,119.437c0.442,0.007,0.875,0.534,1.313,0.82c-0.474,0.304-1.11,0.845-1.598,0.869c-1.976,0.101-3.114,0.042-6.114,0.042
		c0-0.002,0-0.003,0-0.006c-1,0-3.792,0.06-5.767-0.042c-0.18-0.009-0.269,0.183-0.441,0.066c-0.288-0.196-0.513-0.404-0.802-0.404
		c0,0,0.013,0,0.014,0c-0.001,0,0.006,0,0.006,0c0.279-1,0.56-0.713,0.838-0.889c0.167-0.105,0.336-0.317,0.505-0.319
		C57.504,119.511,61.521,119.372,65.536,119.437z"/>
	<path fill="#595959" d="M48.137,141.811c0-0.2,0.775-0.135,1.216-0.135c1.896-0.002,3.733,0,5.63,0l3.842-3.75
		c-3.594,0-7.688,0.002-10.688,0.001V141.811z"/>
	<path fill="#595959" d="M48.137,142.99v5.716l5.025-5.147c-1.296-0.005-2.539-0.019-3.779-0.05
		C48.992,143.499,48.137,143.258,48.137,142.99z"/>
	<path fill="#595959" d="M63.527,110.913l-9.17-9.558c-0.529,0.537-1.062,1.071-1.598,1.604L63.527,110.913z"/>
	<path fill="none" d="M54.165,37.185c0.294-0.316,0.799-0.381,0.842-0.729c0.118-0.946,0.041-1.674,0.041-2.674
		c-0.002,0-0.004,0-0.007,0c0-2,0.074-2.241-0.041-3.242c-0.039-0.344-0.547-0.715-0.841-1.03c-0.291,0.319-0.82,0.564-0.833,0.894
		c-0.079,1.972-0.078,3.914,0.001,5.885C53.339,36.612,53.872,36.874,54.165,37.185z"/>
	<path fill="none" d="M48.137,47.307l2.497-2.497c-0.833,0.041-1.497,0.088-2.497,0.143V47.307z"/>
	<path fill="none" d="M65.329,29.398c-0.284,0.327-0.798,0.644-0.812,0.982c-0.004,0.104-0.006,0.207-0.01,0.311l1.056-1.056
		C65.479,29.556,65.398,29.478,65.329,29.398z"/>
	<path fill="none" d="M48.747,37.203c0.285-0.376,0.7-0.728,0.753-1.134c0.031-0.235,0.017-0.472,0.027-0.71
		c0.028-0.713-0.034-1.437-0.033-2.153c0-0.677,0.043-1.362,0.014-2.035c-0.01-0.224-0.033-0.447-0.065-0.668
		c-0.059-0.4-0.434-0.735-0.731-1.1c-0.197,0.216-0.574,0.428-0.574,0.645v6.523C48.137,36.783,48.538,36.99,48.747,37.203z"/>
	<path fill="none" d="M60.686,33.782c0-2,0.079-2.221-0.042-3.163c-0.043-0.339-0.565-1.024-0.871-1.026s-0.87,0.467-0.883,0.781
		c-0.086,1.966-0.098,3.915-0.008,5.88c0.001,0.025,0.011,0.035,0.019,0.059l1.813-1.575c-0.007-0.371-0.017-0.956-0.017-0.956
		C60.693,33.782,60.689,33.782,60.686,33.782z"/>
	<path fill="#595959" d="M48.709,29.403c0.297,0.365,0.732,0.7,0.791,1.1c0.033,0.221,0.021,0.444,0.031,0.668
		c0.03,0.673-0.037,1.357-0.037,2.035c-0.001,0.717,0.038,1.44,0.01,2.153c-0.01,0.238-0.031,0.475-0.062,0.71
		c-0.053,0.406-0.409,0.757-0.693,1.134c-0.209-0.212-0.612-0.419-0.612-0.632v8.382c1-0.055,1.541-0.102,2.374-0.143l8.451-8.512
		c-0.007-0.025-0.048-0.05-0.049-0.075c-0.09-1.965-0.094-3.945-0.007-5.911c0.014-0.314,0.569-0.844,0.875-0.842
		s0.824,0.811,0.867,1.149c0.12,0.942,0.038,1.163,0.038,3.163c0.004,0,0.008,0,0.011,0c0,0,0.01,0.577,0.017,0.948l3.793-3.917
		c0.004-0.104,0.006-0.269,0.01-0.372c0.014-0.338,0.528-0.686,0.812-1.013c0.07,0.08,0.15,0.143,0.234,0.221l8.813-8.821
		L54.699,0.188c-2.306,0.175-4.562,0.434-6.562,0.792v29.068C48.137,29.831,48.512,29.619,48.709,29.403z M53.325,30.342
		c0.013-0.33,0.542-0.636,0.833-0.955c0.294,0.315,0.802,0.81,0.841,1.153c0.114,1.001,0.041,1.242,0.041,3.242
		c0.002,0,0.005,0,0.007,0c0,1,0.078,1.728-0.041,2.674c-0.042,0.347-0.547,0.536-0.842,0.852c-0.292-0.312-0.826-0.665-0.838-0.989
		C53.247,34.348,53.247,32.314,53.325,30.342z"/>
</g>
</svg>
