<?xml version="1.0" encoding="utf-8"?>
<!-- Generator: Adobe Illustrator 16.0.0, SVG Export Plug-In . SVG Version: 6.00 Build 0)  -->
<!DOCTYPE svg PUBLIC "-//W3C//DTD SVG 1.1 Tiny//EN" "http://www.w3.org/Graphics/SVG/1.1/DTD/svg11-tiny.dtd">
<svg version="1.1" baseProfile="tiny" id="Layer_1" xmlns="http://www.w3.org/2000/svg" xmlns:xlink="http://www.w3.org/1999/xlink"
	 x="0px" y="0px" width="365.816px" height="162.542px" viewBox="0 0 365.816 162.542" xml:space="preserve">
<path fill="none" d="M68.814,15.332c-0.011-0.224-0.033-0.446-0.07-0.666c-0.075-0.437-0.617-0.795-0.946-1.189
	c-0.285,0.374-0.799,0.736-0.817,1.122c-0.085,1.855-0.086,3.72,0.001,5.575c0.018,0.38,0.542,0.736,0.834,1.103
	c0.324-0.347,0.872-0.661,0.928-1.046c0.035-0.234,0.054-0.47,0.065-0.708c0.032-0.713-0.02-1.438-0.02-2.155
	C68.789,16.69,68.848,16.003,68.814,15.332z"/>
<path fill="none" d="M62.28,13.505c-0.279,0.327-0.755,0.891-0.797,1.246c-0.112,0.947-0.038,1.163-0.038,3.163
	c0.003,0,0.005,0,0.009,0c0,1-0.074,1.75,0.042,2.75c0.038,0.326,0.532,0.561,0.893,0.664c0.181,0.052,0.759-0.541,0.77-0.824
	c0.072-2.024,0.084-4.069,0.009-6.093C63.156,14.104,62.589,13.801,62.28,13.505z"/>
<g>
	<path fill="#595959" d="M190.688,33.99c2.253,0,4.677,0.025,7.274,0.074c2.596,0.051,5.167,0.198,7.716,0.44
		c2.546,0.247,4.923,0.614,7.128,1.103c2.203,0.492,4.088,1.226,5.658,2.204c3.428,2.058,6.342,4.9,8.744,8.524
		c2.399,3.626,3.6,8.083,3.6,13.374c0,5.585-1.348,10.412-4.042,14.477c-2.695,4.066-6.54,7.079-11.536,9.038v0.294
		c6.467,1.373,11.413,4.312,14.844,8.817c3.428,4.507,5.144,9.993,5.144,16.459c0,3.822-0.688,7.545-2.058,11.17
		c-1.374,3.625-3.405,6.833-6.1,9.625c-2.695,2.792-6.025,5.047-9.992,6.76c-3.969,1.716-8.55,2.573-13.741,2.573h-50.702V33.99
		H190.688z M194.508,79.107c7.937,0,13.643-1.396,17.122-4.188c3.477-2.792,5.217-6.98,5.217-12.566
		c0-3.721-0.588-6.662-1.764-8.817c-1.176-2.154-2.792-3.821-4.85-4.997c-2.059-1.176-4.434-1.933-7.129-2.277
		c-2.695-0.343-5.561-0.515-8.597-0.515h-27.922v33.36H194.508z M201.562,127.164c6.174,0,10.999-1.665,14.477-4.997
		c3.477-3.33,5.217-7.935,5.217-13.814c0-3.428-0.638-6.268-1.91-8.523c-1.273-2.252-2.965-4.042-5.07-5.364
		c-2.107-1.322-4.531-2.252-7.273-2.792c-2.745-0.538-5.586-0.808-8.524-0.808h-31.891v36.299H201.562z"/>
	<path fill="#595959" d="M248.224,33.99v104.932h-12.49V33.99H248.224z"/>
	<path fill="#595959" d="M249.355,49.274V33.99h12.49v15.285H249.355z M261.845,62.941v75.98h-12.49v-75.98H261.845z"/>
	<path fill="#595959" d="M303.536,63.247v11.022h-15.135v47.174c0,1.471,0.121,2.646,0.366,3.527
		c0.243,0.882,0.708,1.568,1.396,2.058c0.684,0.492,1.641,0.809,2.866,0.955s2.814,0.221,4.777,0.221h5.729v11.022h-9.551
		c-3.233,0-6.004-0.221-8.304-0.661c-2.304-0.441-4.166-1.25-5.585-2.426c-1.423-1.175-2.475-2.84-3.159-4.997
		c-0.688-2.153-1.029-4.996-1.029-8.523v-48.35h-12.932V63.247h12.932v-22.78h12.493v22.78H303.536z"/>
	<path fill="#595959" d="M347.592,74.309H304.68V63.287h59.078v8.524l-46.44,56.434h48.498v11.022h-64.075v-9.553L347.592,74.309z"
		/>
</g>
<path fill="none" d="M88.951,16.114c-0.011-0.224-0.033-0.446-0.07-0.666c-0.075-0.437-0.617-0.795-0.946-1.189
	c-0.285,0.374-0.799,0.736-0.817,1.122c-0.085,1.855-0.086,3.72,0.001,5.575c0.018,0.38,0.542,0.736,0.834,1.103
	c0.324-0.347,0.872-0.661,0.928-1.046c0.035-0.234,0.054-0.47,0.065-0.708c0.032-0.713-0.02-1.438-0.02-2.155
	C88.925,17.473,88.985,16.785,88.951,16.114z"/>
<path fill="none" d="M82.417,14.288c-0.279,0.327-0.755,1-0.797,1.355c-0.112,0.947-0.038,1.271-0.038,3.271
	c0.003,0,0.005,0,0.009,0c0,1-0.074,1.641,0.042,2.641c0.038,0.326,0.532,0.506,0.893,0.61c0.181,0.052,0.759-0.568,0.77-0.851
	c0.072-2.024,0.084-4.083,0.009-6.106C83.292,14.9,82.726,14.583,82.417,14.288z"/>
<path fill="#595959" d="M122.14,57.03c-1.322-3.205-2.639-6.414-3.961-9.619l0.184-0.253c-2.154-5.223-4.334-10.437-6.637-15.594
	c-2.523-5.653-5.455-11.129-8.357-16.604c-0.753-1.42-1.872-2.839-3.18-3.741C89.12,3.58,76.839-0.208,65.49,0.009
	c-2.568-0.006-5.033,0.081-7.412,0.261l19.801,20.637l-8.813,8.813c0.287,0.267,0.609,0.529,0.65,0.83
	c0.033,0.236,0.051,0.474,0.061,0.713c0.031,0.717-0.019,1.446-0.018,2.167c0,0.908,0.086,1.829-0.038,2.72
	c-0.058,0.412-0.527,0.766-0.81,1.146c-0.311-0.354-0.873-0.696-0.89-1.063c-0.085-1.816-0.08-3.639-0.012-5.457l-3.794,3.794
	c0.011,0.606,0.014,1.167-0.056,1.787c-0.039,0.355-0.532,0.634-0.817,0.962c-0.311-0.308-0.85-0.616-0.939-0.936l-8.513,8.513
	c5.621-0.275,11.267-0.25,16.926-0.035c10.135,0.385,20.165,1.519,29.879,4.621c4.167,1.33,8.163,3.025,11.741,5.601l-0.111,0.154
	c0.061,0.043,0.121,0.082,0.18,0.125c0.904,0.67,1.254,1.405,1.248,2.547c-0.045,9.369-0.047,18.739,0.006,28.108
	c0.006,1.231-0.318,2.136-1.236,2.927c-2.633,2.27-5.209,4.604-7.853,6.863c-3.914,3.346-8.748,3.877-13.574,4.042
	c-2.856,0.098-5.75-0.343-8.593-0.766c-0.35-0.052-0.728-0.245-1.076-0.505l0.114-0.159c-0.359-0.296-0.672-0.657-0.86-1.008
	c-3.13-5.843-6.171-11.735-9.184-17.64c-0.523-1.026-1.255-1.676-2.214-2.062L51.832,95.158l4.851,5.057
	c0.465-0.456,0.932-0.909,1.409-1.353c0.208-0.194,0.829-0.149,1.121,0.022c0.197,0.115,0.331,0.812,0.188,0.963
	c-0.507,0.537-1.022,1.066-1.541,1.593l9.17,9.558l3.422,2.527l-0.114,0.159l-2.507-1.853l10.048,10.474l-8.297,8.296
	c1.253,0.008,2.506,0.006,3.759,0.018c0.544,0.005,1.504,0.5,1.548,0.855c0.137,1.123-0.865,0.955-1.588,0.957
	c-1.85,0.006-3.701,0.004-5.551,0.003l-3.777,3.776c3.948,0.001,7.896,0,11.844,0.004c0.426,0,0.891-0.057,1.265,0.093
	c0.282,0.112,0.617,0.513,0.619,0.786c0.002,0.275-0.333,0.708-0.606,0.791c-0.495,0.152-1.053,0.124-1.584,0.124
	c-4.446,0.003-8.891,0.003-13.337,0.003l-3.75,3.749c4.959-0.003,9.919-0.005,14.878-0.001c0.735,0,1.729-0.127,1.58,0.982
	c-0.049,0.358-1.024,0.836-1.576,0.848c-3.424,0.079-7.296,0.04-10.296,0.04c0,0.002,0,0.005,0,0.005c-2,0-4.141,0.019-6.422,0.008
	l-5.171,5.148l5.152,4.391c0.182-0.109,0.359-0.188,0.547-0.197c1.976-0.098,3.957-0.041,5.938-0.043s3.961-0.052,5.938,0.037
	c0.459,0.02,0.898,0.511,1.347,0.786c-0.457,0.325-0.909,0.924-1.372,0.933c-3.534,0.07-7.069,0.07-10.604,0.021l9.1,7.737
	c3.175-0.301,6.391-0.861,9.641-1.672c11.299-2.812,20.602-9.037,26.396-19.236c4.924-8.671,8.883-17.893,13.211-26.897
	c1.713-3.566,2.34-7.395,2.594-11.338c0.512-7.896,1.178-15.784,1.812-23.672c0.523-6.505,1.131-13.003,1.607-19.512
	C122.796,59.111,122.535,57.986,122.14,57.03z M75.359,36.306c-0.016,0.345-0.637,0.661-0.979,0.99
	c-0.276-0.386-0.737-0.75-0.791-1.165c-0.03-0.235-0.047-0.473-0.056-0.711c-0.027-0.715,0.019-1.439,0.019-2.158
	c0.002-0.904-0.089-1.823,0.044-2.708c0.059-0.392,0.573-0.715,0.88-1.07c0.306,0.306,0.864,0.601,0.878,0.92
	C75.439,32.37,75.451,34.342,75.359,36.306z M80.991,35.465c-0.009,0.225-0.027,0.448-0.058,0.67
	c-0.057,0.416-0.512,0.776-0.787,1.162c-0.339-0.387-0.948-0.759-0.971-1.164c-0.106-1.854-0.099-3.719-0.006-5.574
	c0.018-0.372,0.584-0.716,0.897-1.073c0.3,0.358,0.809,0.688,0.862,1.081c0.032,0.234,0.05,0.471,0.061,0.709
	c0.029,0.713-0.02,1.437-0.019,2.155C80.971,34.107,81.019,34.792,80.991,35.465z M86.789,21.399
	c-0.011,0.283-0.589,0.817-0.77,0.765c-0.361-0.104-0.855-0.197-0.893-0.523c-0.116-1-0.042-1.727-0.042-2.727
	c-0.003,0-0.006,0-0.009,0c0-1-0.075-2.239,0.038-3.186c0.042-0.355,0.518-0.813,0.796-1.139c0.31,0.296,0.875,0.504,0.888,0.812
	C86.873,17.424,86.861,19.375,86.789,21.399z M92.439,20.476c-0.011,0.237-0.03,0.474-0.065,0.708
	c-0.056,0.386-0.604,0.7-0.928,1.047c-0.292-0.367-0.816-0.724-0.834-1.103c-0.088-1.856-0.087-3.72-0.001-5.576
	c0.018-0.386,0.532-0.749,0.816-1.122c0.33,0.394,0.871,0.751,0.946,1.189c0.037,0.219,0.06,0.441,0.07,0.666
	c0.033,0.671-0.026,1.359-0.024,2.037C92.42,19.039,92.472,19.763,92.439,20.476z M57.741,96.613
	c-0.46-0.753-0.933-1.328-0.851-1.424c0.549-0.637,1.211-1.18,1.876-1.701c0.021-0.016,0.751,0.691,0.695,0.785
	C59.029,94.992,58.481,95.643,57.741,96.613z M67.818,93.484c0.73,0.422,1.396,0.955,2.393,1.68
	c-0.728,0.477-1.289,0.966-1.387,0.887c-0.656-0.533-1.223-1.179-1.765-1.832C67.038,94.193,67.73,93.434,67.818,93.484z
	 M67.343,98.875c0.208-0.188,0.824-0.264,0.991-0.105c1.581,1.506,3.108,3.068,4.638,4.625c0.099,0.101,0.107,0.291,0.268,0.771
	c-0.484,0.153-1.193,0.57-1.369,0.407c-1.641-1.51-3.207-3.104-4.738-4.727C66.994,99.699,67.134,99.063,67.343,98.875z
	 M74.793,113.684c-0.418,0.01-0.953-0.146-1.248-0.432c-0.524-0.506-1.042-1.021-1.561-1.533l0.13-0.18
	c-1.53-1.507-3.05-3.025-4.571-4.542c-0.114-0.112-0.31-0.238-0.307-0.355c0.007-0.431-0.038-0.942,0.178-1.259
	c0.113-0.166,0.88-0.149,1.091,0.055c1.531,1.473,3.039,2.971,4.542,4.475l-0.131,0.182c0.721,0.721,1.441,1.439,2.161,2.162
	c0.14,0.141,0.191,0.369,0.341,0.675C75.221,113.185,75.013,113.679,74.793,113.684z M71.79,149.119
	c-2.936,0.076-5.875,0.037-8.814,0.037c-2.885,0-5.771,0.046-8.653-0.039c-0.538-0.016-1.061-0.547-1.59-0.84
	c0.519-0.323,1.036-0.923,1.56-0.93c5.822-0.066,11.647-0.067,17.469,0.002c0.508,0.007,1.008,0.637,1.513,0.979
	C72.779,148.604,72.292,149.106,71.79,149.119z"/>
<path fill="none" d="M47.553,112c-0.247,0.258-0.069,0.92-0.088,1.395c0.137-0.02,0.285-0.025,0.435-0.029v-1.719
	C47.786,111.766,47.667,111.881,47.553,112z"/>
<path fill="none" d="M47.541,131.332c0.12,0.072,0.24,0.158,0.359,0.248v-0.49C47.78,131.178,47.661,131.262,47.541,131.332z"/>
<path fill="none" d="M42.088,33.914c0,1-0.076,1.613,0.04,2.562c0.042,0.351,0.534,0.501,0.822,0.822
	c0.314-0.301,0.886-0.678,0.9-0.992c0.087-1.976,0.091-4.011,0.015-5.987c-0.013-0.33-0.553-0.67-0.85-0.989
	c-0.311,0.352-0.836,1-0.89,1.387c-0.13,0.946-0.042,1.196-0.042,3.196C42.084,33.914,42.086,33.914,42.088,33.914z"/>
<path fill="none" d="M36.163,20.301c0.011,0.239,0.03,0.476,0.063,0.711c0.053,0.381,0.592,0.694,0.911,1.038
	c0.277-0.328,0.781-0.648,0.795-0.987c0.076-1.919,0.083-3.845-0.007-5.763c-0.017-0.359-0.584-0.691-0.897-1.036
	c-0.281,0.33-0.76,0.635-0.803,0.994c-0.114,0.947-0.038,1.917-0.042,2.878C36.182,18.856,36.132,19.584,36.163,20.301z"/>
<path fill="none" d="M46.103,136.086c-0.434,0.015-0.879,0.557-1.304,0.854c0.429,0.299,0.818,0.691,1.285,0.912
	c0.263,0.123,0.617,0.062,0.938,0.062c0.292,0-0.012,0,0.988,0v-1.869C47.009,136.054,46.72,136.066,46.103,136.086z"/>
<path fill="none" d="M31.646,22.054c0.274-0.389,0.729-0.753,0.786-1.171c0.03-0.224,0.048-0.449,0.057-0.675
	c0.027-0.679-0.021-1.368-0.021-2.05c0-0.964,0.073-1.936-0.038-2.886c-0.043-0.362-0.512-0.674-0.788-1.009
	c-0.335,0.335-0.944,0.656-0.962,1.007c-0.096,1.922-0.098,3.854-0.004,5.775C30.694,21.396,31.308,21.718,31.646,22.054z"/>
<path fill="none" d="M47.736,30.368c-0.093,1.907-0.067,3.824,0.027,5.731c0.006,0.132,0.247,0.26,0.247,0.386v-6.523
	C48.009,30.095,47.743,30.229,47.736,30.368z"/>
<path fill="none" d="M59.849,37.146c0.286-0.327,0.778-0.606,0.817-0.962c0.07-0.62,0.067-1.18,0.056-1.787l-1.813,1.813
	C58.999,36.531,59.539,36.838,59.849,37.146z"/>
<path fill="none" d="M55.907,99.677c0.143-0.15,0.009-0.849-0.188-0.964c-0.292-0.171-0.913-0.217-1.121-0.021
	c-0.477,0.443-0.943,0.896-1.409,1.352l1.177,1.227C54.885,100.743,55.399,100.213,55.907,99.677z"/>
<path fill="none" d="M64.529,36.062c0.017,0.367,0.579,0.709,0.89,1.062c0.282-0.38,0.751-0.735,0.81-1.146
	c0.124-0.891,0.038-1.811,0.038-2.72c-0.001-0.721,0.048-1.449,0.018-2.167c-0.01-0.239-0.029-0.477-0.062-0.713
	c-0.042-0.3-0.363-0.562-0.65-0.83l-1.056,1.056C64.448,32.422,64.444,34.246,64.529,36.062z"/>
<polygon fill="none" points="66.844,113.514 66.958,113.354 63.537,110.827 64.337,111.662 "/>
<path fill="none" d="M47.593,142.51c0.012,0.123,0.135,0.262,0.307,0.395v-1.18C47.683,141.852,47.551,142.083,47.593,142.51z"/>
<path fill="none" d="M55.274,93.317c-0.666,0.521-1.327,1.063-1.876,1.7c-0.083,0.096,0.391,0.672,0.851,1.424
	c0.74-0.97,1.288-1.62,1.721-2.34C56.025,94.008,55.295,93.301,55.274,93.317z"/>
<path fill="none" d="M77.496,31.104c-0.01-0.237-0.029-0.474-0.06-0.709c-0.053-0.392-0.562-0.723-0.862-1.081
	c-0.313,0.357-0.879,0.702-0.897,1.073c-0.093,1.855-0.099,3.72,0.006,5.574c0.024,0.405,0.632,0.777,0.971,1.164
	c0.275-0.386,0.73-0.746,0.787-1.162c0.03-0.222,0.048-0.445,0.058-0.669c0.027-0.674-0.02-1.358-0.021-2.035
	C77.477,32.542,77.525,31.817,77.496,31.104z"/>
<path fill="none" d="M70.983,29.314c-0.307,0.354-0.821,0.678-0.88,1.07c-0.133,0.884-0.042,1.803-0.044,2.708
	c0,0.718-0.046,1.442-0.019,2.157c0.009,0.238,0.027,0.476,0.057,0.711c0.053,0.415,0.514,0.778,0.791,1.165
	c0.341-0.329,0.962-0.646,0.978-0.99c0.092-1.964,0.081-3.936-0.004-5.9C71.847,29.916,71.289,29.62,70.983,29.314z"/>
<path fill="#E08600" d="M48.009,142.904c0-0.133-0.294-0.271-0.307-0.395c-0.042-0.427,0.307-0.658,0.307-0.785v-3.811
	c-1,0-0.695,0-0.988,0c-0.32,0-0.688,0.061-0.951-0.062c-0.467-0.221-0.87-0.595-1.299-0.894c0.425-0.298,0.897-0.848,1.331-0.862
	c0.617-0.021,0.907-0.042,1.907-0.051v-4.465c0-0.09-0.239-0.176-0.359-0.248c0.12-0.07,0.359-0.154,0.359-0.242v-17.725
	c0,0.004-0.353,0.01-0.49,0.029c0.019-0.475-0.131-1.137,0.116-1.395c0.114-0.119,0.374-0.234,0.374-0.354v-16.22v-0.897v-7.881
	c-2,3.486-3.678,6.973-5.447,10.48c-0.543,1.078-1.263,1.624-2.392,1.868c-5.836,1.261-11.664,0.958-17.302-0.785
	c-2.169-0.67-4.164-2.191-5.994-3.63c-2.433-1.914-4.679-4.08-6.896-6.246c-0.526-0.514-0.874-1.457-0.886-2.209
	c-0.02-1.19-0.033-2.382-0.041-3.573C9.029,78.98,9.05,75.406,9.05,71.832c0.001-4.711,0.036-9.424-0.024-14.135
	c-0.014-1.139,0.347-1.878,1.254-2.548c4.919-3.63,10.608-5.623,16.442-7.08c7.017-1.753,14.288-2.735,21.288-3.202v-8.382
	c0-0.126-0.268-0.254-0.274-0.386c-0.094-1.907-0.065-3.824,0.028-5.731c0.007-0.139,0.246-0.273,0.246-0.406V0.894
	c-8,1.207-13.836,3.475-20.086,6.937c-4.914,2.721-8.564,6.291-10.798,11.376C11.841,31.242,6.559,43.284,1.208,55.288
	c-0.971,2.179-1.36,4.358-1.155,6.696c0.27,3.092,0.5,6.186,0.772,9.277c0.851,9.642,2.548,19.205,2.477,28.932
	c-0.043,5.968,1.252,11.673,3.897,17.049c3.289,6.688,6.555,13.387,9.86,20.066l-0.183,0.219c0.316,0.639,0.629,1.281,0.947,1.92
	c2.722,5.482,6.793,9.918,11.695,13.49c5.874,4.281,11.49,7.035,18.49,8.452v-12.771V142.904z M42.125,30.707
	c0.053-0.387,0.579-0.869,0.89-1.221c0.297,0.319,0.837,0.549,0.85,0.878c0.077,1.976,0.072,3.922-0.015,5.898
	c-0.014,0.313-0.586,0.58-0.9,0.881c-0.288-0.321-0.779-0.305-0.822-0.656c-0.115-0.949-0.04-1.574-0.04-2.574
	c-0.002,0-0.004,0-0.006,0C42.083,31.914,41.995,31.653,42.125,30.707z M36.224,15.257c0.043-0.358,0.522-0.664,0.803-0.994
	c0.313,0.345,0.88,0.677,0.897,1.036c0.09,1.917,0.083,3.844,0.007,5.763c-0.014,0.339-0.518,0.659-0.795,0.987
	c-0.318-0.343-0.857-0.656-0.911-1.038c-0.033-0.235-0.053-0.473-0.063-0.711c-0.031-0.717,0.02-1.444,0.02-2.165
	C36.186,17.175,36.11,16.205,36.224,15.257z M30.681,15.27c0.018-0.351,0.626-0.672,0.962-1.007
	c0.275,0.334,0.745,0.646,0.788,1.009c0.111,0.95,0.038,1.922,0.038,2.886c0,0.682,0.048,1.371,0.021,2.05
	c-0.009,0.226-0.027,0.451-0.057,0.675c-0.057,0.418-0.512,0.782-0.786,1.171c-0.338-0.335-0.952-0.657-0.969-1.008
	C30.583,19.124,30.584,17.192,30.681,15.27z"/>
<path fill="none" d="M53.592,154.535c0.426,0.009,0.852,0.006,1.278,0.012l-1.806-1.536c-0.305,0.183-0.605,0.453-0.909,0.635
	C52.633,153.957,53.108,154.527,53.592,154.535z"/>
<path fill="#E08600" d="M53.592,154.535c-0.484-0.008-0.958-0.578-1.437-0.89c0.304-0.182,0.658-0.452,0.963-0.635l-5.109-4.392
	v12.771c5,1.155,10.526,1.417,16.015,0.895l-9.126-7.737C54.471,154.541,54.018,154.544,53.592,154.535z"/>
<path fill="none" d="M48.009,141.725v1.18c0,0.268,0.862,0.508,1.253,0.518c1.24,0.031,2.517,0.045,3.813,0.051l1.869-1.883
	c-1.897,0-3.749-0.002-5.644,0C48.859,141.59,48.009,141.525,48.009,141.725z"/>
<path fill="none" d="M51.383,101.85l-2.819-2.082l-0.125,0.15l2.676,1.977c-0.404,0.412-0.812,0.82-1.21,1.238
	c-0.181,0.189-0.157,0.708-0.042,1.002c0.091,0.231,0.468,0.351,0.662,0.482c0.208-0.066,0.338-0.068,0.405-0.135
	c0.524-0.521,1.048-1.043,1.571-1.564l11.836,8.744l-0.801-0.835l-10.768-7.954c0.535-0.532,1.068-1.066,1.598-1.604l-1.177-1.227
	C52.581,100.639,51.979,101.241,51.383,101.85z"/>
<path fill="none" d="M52.994,119.916c-0.278,0.176-0.559-0.002-0.838,0.998c0,0-0.007,0-0.006,0c-0.001,0-0.014,0-0.014,0
	c0.289,0,0.583,0.1,0.871,0.295c0.173,0.117,0.124-0.005,0.304,0.004c1.975,0.102,4.698-0.137,5.698-0.137c0,0.002,0,0.004,0,0.006
	c3,0,4.207,0.059,6.183-0.042c0.488-0.024,1.089-0.565,1.563-0.869c-0.438-0.286-0.82-0.813-1.262-0.82
	c-4.014-0.064-8.005,0.13-12.02,0.192C53.304,119.545,53.161,119.811,52.994,119.916z"/>
<path fill="none" d="M49.299,125.824c0.041,0.354,0.768,0.84,1.318,0.856c2.882,0.086,5.392,0.04,8.392,0.04
	c0-0.002,0-0.005,0-0.007c3,0,5.923,0.052,8.751-0.042c0.594-0.02,1.791-0.523,1.826-0.885c0.106-1.089-0.864-0.922-1.58-0.924
	c-5.715-0.011-11.412-0.01-17.127,0C50.158,124.865,49.172,124.718,49.299,125.824z"/>
<path fill="none" d="M49.181,130.443c-0.411,0.004-1.172,0.348-1.172,0.646v0.49c0,0.295,0.732,0.63,1.132,0.64
	c3.425,0.081,6.825,0.042,10.251,0.046c1.631,0,3.247-0.002,4.877-0.002l1.852-1.832C60.469,130.398,54.835,130.396,49.181,130.443z
	"/>
<path fill="none" d="M53.792,135.977c-1.945,0.002-3.783,0.043-5.783,0.068v1.797c3,0,7.132-0.064,10.726-0.064l1.745-1.863
	c-0.325,0-0.65,0-0.975,0C57.583,135.914,55.715,135.977,53.792,135.977z"/>
<path fill="none" d="M52.061,110.02c1.099-1.096,2.23-2.16,3.268-3.311c0.255-0.282,0.286-0.852,0.248-1.274
	c-0.016-0.185-0.466-0.329-0.735-0.501c-0.286,0.182-0.487,0.289-0.669,0.469c-2.087,2.066-4.163,4.129-6.163,6.244v1.719
	c0-0.012,0.684-0.018,0.898-0.204C50.033,112.178,51.001,111.077,52.061,110.02z"/>
<path fill="#E08600" d="M49.142,132.22c-0.4-0.01-1.132-0.345-1.132-0.64v4.465c2-0.025,3.837-0.066,5.783-0.068
	c1.923,0,3.791-0.062,5.713-0.062c0.325,0,0.65,0,0.975,0l3.777-3.713c-1.63,0-3.233,0.033-4.864,0.033
	C55.967,132.23,52.567,132.301,49.142,132.22z"/>
<path fill="#E08600" d="M54.612,77.27c-1.439,0.35-2.399,1.1-3.093,2.462c-1.176,2.312-2.509,4.614-3.509,6.917v7.881v0.897v16.22
	c2-2.115,4.076-4.178,6.163-6.244c0.182-0.18,0.411-0.287,0.697-0.469c0.269,0.172,0.705,0.316,0.721,0.501
	c0.038,0.423,0,0.992-0.255,1.274c-1.038,1.15-2.173,2.215-3.271,3.311c-1.06,1.058-2.029,2.158-3.155,3.142
	c-0.214,0.187-0.9,0.192-0.9,0.204v17.725c0-0.299,0.761-0.643,1.172-0.646c5.654-0.047,11.281-0.045,16.935-0.012l8.283-8.297
	l-10.055-10.473l-11.84-8.744c-0.523,0.521-1.049,1.043-1.573,1.564c-0.066,0.066-0.198,0.068-0.406,0.135
	c-0.194-0.132-0.571-0.251-0.662-0.482c-0.115-0.294-0.139-0.812,0.042-1.002c0.398-0.418,0.806-0.826,1.21-1.238l-2.676-1.977
	l0.125-0.15l2.819,2.082c0.596-0.608,1.198-1.211,1.806-1.807l-4.851-5.055l17.449-17.449c-0.219-0.088-0.446-0.168-0.691-0.229
	C61.605,76.43,58.115,76.418,54.612,77.27z M69.689,125.787c-0.035,0.361-1.335,0.865-1.929,0.885
	c-2.828,0.094-5.751,0.042-8.751,0.042c0,0.002,0,0.005,0,0.007c-3,0-5.51,0.046-8.392-0.04c-0.551-0.017-1.381-0.503-1.422-0.856
	c-0.127-1.106,0.936-0.959,1.658-0.961c5.715-0.01,11.463-0.011,17.179,0C68.749,124.865,69.796,124.698,69.689,125.787z
	 M65.545,119.351c0.442,0.007,0.875,0.534,1.313,0.82c-0.474,0.304-1.178,0.845-1.667,0.869c-1.976,0.101-3.183,0.042-6.183,0.042
	c0-0.002,0-0.004,0-0.006c-1,0-3.724,0.06-5.698-0.041c-0.18-0.01-0.234,0.291-0.407,0.174c-0.288-0.195-0.479-0.295-0.768-0.295
	c0,0,0.013,0,0.014,0c-0.001,0,0.006,0,0.006,0c0.279-1,0.56-0.822,0.838-0.998c0.167-0.105,0.336-0.371,0.505-0.373
	C57.513,119.48,61.531,119.286,65.545,119.351z"/>
<path fill="#E08600" d="M48.009,141.725c0-0.199,0.843-0.135,1.284-0.135c1.896-0.002,3.767,0,5.665,0l3.791-3.75
	c-3.594,0-7.739,0.002-10.739,0.002V141.725z"/>
<path fill="#E08600" d="M48.009,142.904v5.715l5.093-5.146c-1.296-0.006-2.573-0.02-3.813-0.051
	C48.899,143.412,48.009,143.172,48.009,142.904z"/>
<path fill="#E08600" d="M63.537,110.827l-9.17-9.558c-0.529,0.537-1.062,1.071-1.598,1.604L63.537,110.827z"/>
<path fill="none" d="M54.174,37.099c0.294-0.316,0.799-0.272,0.842-0.62c0.118-0.946,0.041-1.565,0.041-2.565
	c-0.002,0-0.004,0-0.007,0c0-2,0.074-2.35-0.041-3.351c-0.039-0.344-0.547-0.77-0.841-1.084c-0.291,0.318-0.82,0.537-0.833,0.866
	c-0.079,1.972-0.078,3.9,0.001,5.872C53.348,36.54,53.881,36.788,54.174,37.099z"/>
<path fill="none" d="M48.009,47.221l2.497-2.497c-0.833,0.041-1.497,0.088-2.497,0.143V47.221z"/>
<path fill="none" d="M65.338,29.312c-0.284,0.327-0.798,0.644-0.812,0.982c-0.004,0.104-0.006,0.207-0.01,0.311l1.056-1.056
	C65.488,29.47,65.408,29.392,65.338,29.312z"/>
<path fill="none" d="M48.688,37.117c0.285-0.376,0.734-0.728,0.787-1.134c0.031-0.235,0.034-0.472,0.044-0.71
	c0.028-0.713-0.025-1.437-0.024-2.153c0-0.677,0.048-1.362,0.018-2.035c-0.01-0.224-0.03-0.447-0.063-0.668
	c-0.059-0.4-0.501-0.735-0.799-1.1c-0.197,0.216-0.642,0.428-0.642,0.645v6.523C48.009,36.697,48.479,36.904,48.688,37.117z"/>
<path fill="none" d="M60.695,33.914c0-2,0.079-2.33-0.042-3.272c-0.043-0.339-0.565-1.079-0.871-1.081s-0.87,0.439-0.883,0.753
	c-0.086,1.966-0.098,3.901-0.008,5.866c0.001,0.025,0.011,0.028,0.019,0.052l1.813-1.469c-0.007-0.371-0.017-0.85-0.017-0.85
	C60.703,33.914,60.699,33.914,60.695,33.914z"/>
<path fill="#E08600" d="M48.65,29.317c0.297,0.365,0.766,0.7,0.825,1.1c0.033,0.221,0.038,0.444,0.048,0.668
	c0.03,0.673-0.028,1.357-0.028,2.035c-0.001,0.717,0.042,1.44,0.014,2.153c-0.01,0.238-0.028,0.475-0.059,0.71
	c-0.053,0.406-0.476,0.757-0.761,1.134c-0.209-0.212-0.68-0.419-0.68-0.632v8.382c1-0.055,1.609-0.102,2.442-0.143l8.485-8.512
	c-0.007-0.025-0.031-0.05-0.032-0.075c-0.09-1.965-0.086-3.945,0.001-5.911c0.014-0.314,0.574-0.844,0.88-0.842
	s0.826,0.919,0.87,1.258c0.12,0.942,0.04,1.272,0.04,3.272c0.004,0,0.008,0,0.011,0c0,0,0.01,0.468,0.017,0.839l3.793-3.971
	c0.004-0.104,0.006-0.296,0.01-0.399c0.014-0.338,0.528-0.7,0.812-1.026c0.07,0.08,0.15,0.136,0.234,0.214l8.813-8.824L54.64,0.104
	c-2.306,0.176-4.631,0.433-6.631,0.79v29.068C48.009,29.745,48.453,29.533,48.65,29.317z M53.334,30.256
	c0.013-0.33,0.542-0.636,0.833-0.955c0.294,0.315,0.802,0.918,0.841,1.262c0.114,1.001,0.041,1.351,0.041,3.351
	c0.002,0,0.005,0,0.007,0c0,1,0.078,1.619-0.041,2.565c-0.042,0.347-0.547,0.481-0.842,0.797c-0.292-0.312-0.826-0.692-0.838-1.016
	C53.256,34.289,53.256,32.228,53.334,30.256z"/>
</svg>
